<?xml version="1.0" encoding="UTF-8"?>
<svg xmlns="http://www.w3.org/2000/svg" xmlns:xlink="http://www.w3.org/1999/xlink" width="1138.5" height="778.5" viewBox="-51.75 -726.75 1138.5 778.5">
<defs>
<style type="text/css">
.l235d4 {stroke: #0067A5; fill: #0067A5; fill-opacity: 0.5;}
.l71d20 {stroke: #B3446C; fill: #B3446C; fill-opacity: 0.5;}
</style>
</defs>
<rect x="-51.75" y="-726.75" width="1138.5" height="778.5" fill="#222222" stroke="none"/>
<g id="my_logo" transform="scale(1 -1)">
<polygon id="0x221b5d0" class="l71d20" points="15.75,45 15.75,53.5 24.25,53.5 24.25,45 35,45 35,55.75 26.5,55.75 26.5,64.25 35,64.25 35,75 24.25,75 24.25,66.5 15.75,66.5 15.75,75 5,75 5,64.25 13.5,64.25 13.5,55.75 5,55.75 5,45"/>
<polygon id="0x221c130" class="l71d20" points="15.75,85 15.75,93.5 24.25,93.5 24.25,85 35,85 35,95.75 26.5,95.75 26.5,104.25 35,104.25 35,115 24.25,115 24.25,106.5 15.75,106.5 15.75,115 5,115 5,104.25 13.5,104.25 13.5,95.75 5,95.75 5,85"/>
<polygon id="0x221c1d0" class="l71d20" points="15.75,125 15.75,133.5 24.25,133.5 24.25,125 35,125 35,135.75 26.5,135.75 26.5,144.25 35,144.25 35,155 24.25,155 24.25,146.5 15.75,146.5 15.75,155 5,155 5,144.25 13.5,144.25 13.5,135.75 5,135.75 5,125"/>
<polygon id="0x221c240" class="l71d20" points="15.75,165 15.75,173.5 24.25,173.5 24.25,165 35,165 35,175.75 26.5,175.75 26.5,184.25 35,184.25 35,195 24.25,195 24.25,186.5 15.75,186.5 15.75,195 5,195 5,184.25 13.5,184.25 13.5,175.75 5,175.75 5,165"/>
<polygon id="0x221c2b0" class="l71d20" points="15.75,205 15.75,213.5 24.25,213.5 24.25,205 35,205 35,215.75 26.5,215.75 26.5,224.25 35,224.25 35,235 24.25,235 24.25,226.5 15.75,226.5 15.75,235 5,235 5,224.25 13.5,224.25 13.5,215.75 5,215.75 5,205"/>
<polygon id="0x221c320" class="l71d20" points="15.75,245 15.75,253.5 24.25,253.5 24.25,245 35,245 35,255.75 26.5,255.75 26.5,264.25 35,264.25 35,275 24.25,275 24.25,266.5 15.75,266.5 15.75,275 5,275 5,264.25 13.5,264.25 13.5,255.75 5,255.75 5,245"/>
<polygon id="0x221c3e0" class="l71d20" points="95.75,5 95.75,13.5 104.25,13.5 104.25,5 115,5 115,15.75 106.5,15.75 106.5,24.25 115,24.25 115,35 104.25,35 104.25,26.5 95.75,26.5 95.75,35 85,35 85,24.25 93.5,24.25 93.5,15.75 85,15.75 85,5"/>
<polygon id="0x221c450" class="l71d20" points="95.75,45 95.75,53.5 104.25,53.5 104.25,45 115,45 115,55.75 106.5,55.75 106.5,64.25 115,64.25 115,75 104.25,75 104.25,66.5 95.75,66.5 95.75,75 85,75 85,64.25 93.5,64.25 93.5,55.75 85,55.75 85,45"/>
<polygon id="0x221c4c0" class="l71d20" points="95.75,85 95.75,93.5 104.25,93.5 104.25,85 115,85 115,95.75 106.5,95.75 106.5,104.25 115,104.25 115,115 104.25,115 104.25,106.5 95.75,106.5 95.75,115 85,115 85,104.25 93.5,104.25 93.5,95.75 85,95.75 85,85"/>
<polygon id="0x221c530" class="l71d20" points="95.75,205 95.75,213.5 104.25,213.5 104.25,205 115,205 115,215.75 106.5,215.75 106.5,224.25 115,224.25 115,235 104.25,235 104.25,226.5 95.75,226.5 95.75,235 85,235 85,224.25 93.5,224.25 93.5,215.75 85,215.75 85,205"/>
<polygon id="0x221c5a0" class="l71d20" points="95.75,245 95.75,253.5 104.25,253.5 104.25,245 115,245 115,255.75 106.5,255.75 106.5,264.25 115,264.25 115,275 104.25,275 104.25,266.5 95.75,266.5 95.75,275 85,275 85,264.25 93.5,264.25 93.5,255.75 85,255.75 85,245"/>
<polygon id="0x221c610" class="l71d20" points="95.75,285 95.75,293.5 104.25,293.5 104.25,285 115,285 115,295.75 106.5,295.75 106.5,304.25 115,304.25 115,315 104.25,315 104.25,306.5 95.75,306.5 95.75,315 85,315 85,304.25 93.5,304.25 93.5,295.75 85,295.75 85,285"/>
<polygon id="0x221c680" class="l71d20" points="135.75,125 135.75,133.5 144.25,133.5 144.25,125 155,125 155,135.75 146.5,135.75 146.5,144.25 155,144.25 155,155 144.25,155 144.25,146.5 135.75,146.5 135.75,155 125,155 125,144.25 133.5,144.25 133.5,135.75 125,135.75 125,125"/>
<polygon id="0x221c6f0" class="l71d20" points="135.75,165 135.75,173.5 144.25,173.5 144.25,165 155,165 155,175.75 146.5,175.75 146.5,184.25 155,184.25 155,195 144.25,195 144.25,186.5 135.75,186.5 135.75,195 125,195 125,184.25 133.5,184.25 133.5,175.75 125,175.75 125,165"/>
<polygon id="0x221c760" class="l71d20" points="175.75,125 175.75,133.5 184.25,133.5 184.25,125 195,125 195,135.75 186.5,135.75 186.5,144.25 195,144.25 195,155 184.25,155 184.25,146.5 175.75,146.5 175.75,155 165,155 165,144.25 173.5,144.25 173.5,135.75 165,135.75 165,125"/>
<polygon id="0x221c7d0" class="l71d20" points="175.75,165 175.75,173.5 184.25,173.5 184.25,165 195,165 195,175.75 186.5,175.75 186.5,184.25 195,184.25 195,195 184.25,195 184.25,186.5 175.75,186.5 175.75,195 165,195 165,184.25 173.5,184.25 173.5,175.75 165,175.75 165,165"/>
<polygon id="0x221c990" class="l71d20" points="215.75,5 215.75,13.5 224.25,13.5 224.25,5 235,5 235,15.75 226.5,15.75 226.5,24.25 235,24.25 235,35 224.25,35 224.25,26.5 215.75,26.5 215.75,35 205,35 205,24.25 213.5,24.25 213.5,15.75 205,15.75 205,5"/>
<polygon id="0x221cb50" class="l71d20" points="215.75,45 215.75,53.5 224.25,53.5 224.25,45 235,45 235,55.75 226.5,55.75 226.5,64.25 235,64.25 235,75 224.25,75 224.25,66.5 215.75,66.5 215.75,75 205,75 205,64.25 213.5,64.25 213.5,55.75 205,55.75 205,45"/>
<polygon id="0x221cd10" class="l71d20" points="215.75,85 215.75,93.5 224.25,93.5 224.25,85 235,85 235,95.75 226.5,95.75 226.5,104.25 235,104.25 235,115 224.25,115 224.25,106.5 215.75,106.5 215.75,115 205,115 205,104.25 213.5,104.25 213.5,95.75 205,95.75 205,85"/>
<polygon id="0x221ced0" class="l71d20" points="215.75,205 215.75,213.5 224.25,213.5 224.25,205 235,205 235,215.75 226.5,215.75 226.5,224.25 235,224.25 235,235 224.25,235 224.25,226.5 215.75,226.5 215.75,235 205,235 205,224.25 213.5,224.25 213.5,215.75 205,215.75 205,205"/>
<polygon id="0x221d090" class="l71d20" points="215.75,245 215.75,253.5 224.25,253.5 224.25,245 235,245 235,255.75 226.5,255.75 226.5,264.25 235,264.25 235,275 224.25,275 224.25,266.5 215.75,266.5 215.75,275 205,275 205,264.25 213.5,264.25 213.5,255.75 205,255.75 205,245"/>
<polygon id="0x221d250" class="l71d20" points="215.75,285 215.75,293.5 224.25,293.5 224.25,285 235,285 235,295.75 226.5,295.75 226.5,304.25 235,304.25 235,315 224.25,315 224.25,306.5 215.75,306.5 215.75,315 205,315 205,304.25 213.5,304.25 213.5,295.75 205,295.75 205,285"/>
<polygon id="0x221d410" class="l71d20" points="295.75,45 295.75,53.5 304.25,53.5 304.25,45 315,45 315,55.75 306.5,55.75 306.5,64.25 315,64.25 315,75 304.25,75 304.25,66.5 295.75,66.5 295.75,75 285,75 285,64.25 293.5,64.25 293.5,55.75 285,55.75 285,45"/>
<polygon id="0x221d5d0" class="l71d20" points="295.75,85 295.75,93.5 304.25,93.5 304.25,85 315,85 315,95.75 306.5,95.75 306.5,104.25 315,104.25 315,115 304.25,115 304.25,106.5 295.75,106.5 295.75,115 285,115 285,104.25 293.5,104.25 293.5,95.75 285,95.75 285,85"/>
<polygon id="0x221d790" class="l71d20" points="295.75,125 295.75,133.5 304.25,133.5 304.25,125 315,125 315,135.75 306.5,135.75 306.5,144.25 315,144.25 315,155 304.25,155 304.25,146.5 295.75,146.5 295.75,155 285,155 285,144.25 293.5,144.25 293.5,135.75 285,135.75 285,125"/>
<polygon id="0x221d950" class="l71d20" points="295.75,165 295.75,173.5 304.25,173.5 304.25,165 315,165 315,175.75 306.5,175.75 306.5,184.25 315,184.25 315,195 304.25,195 304.25,186.5 295.75,186.5 295.75,195 285,195 285,184.25 293.5,184.25 293.5,175.75 285,175.75 285,165"/>
<polygon id="0x221db10" class="l71d20" points="295.75,205 295.75,213.5 304.25,213.5 304.25,205 315,205 315,215.75 306.5,215.75 306.5,224.25 315,224.25 315,235 304.25,235 304.25,226.5 295.75,226.5 295.75,235 285,235 285,224.25 293.5,224.25 293.5,215.75 285,215.75 285,205"/>
<polygon id="0x221dcd0" class="l71d20" points="295.75,245 295.75,253.5 304.25,253.5 304.25,245 315,245 315,255.75 306.5,255.75 306.5,264.25 315,264.25 315,275 304.25,275 304.25,266.5 295.75,266.5 295.75,275 285,275 285,264.25 293.5,264.25 293.5,255.75 285,255.75 285,245"/>
<polygon id="0x221de90" class="l71d20" points="15.75,365 15.75,373.5 24.25,373.5 24.25,365 35,365 35,375.75 26.5,375.75 26.5,384.25 35,384.25 35,395 24.25,395 24.25,386.5 15.75,386.5 15.75,395 5,395 5,384.25 13.5,384.25 13.5,375.75 5,375.75 5,365"/>
<polygon id="0x221e050" class="l71d20" points="15.75,405 15.75,413.5 24.25,413.5 24.25,405 35,405 35,415.75 26.5,415.75 26.5,424.25 35,424.25 35,435 24.25,435 24.25,426.5 15.75,426.5 15.75,435 5,435 5,424.25 13.5,424.25 13.5,415.75 5,415.75 5,405"/>
<polygon id="0x221e210" class="l71d20" points="15.75,605 15.75,613.5 24.25,613.5 24.25,605 35,605 35,615.75 26.5,615.75 26.5,624.25 35,624.25 35,635 24.25,635 24.25,626.5 15.75,626.5 15.75,635 5,635 5,624.25 13.5,624.25 13.5,615.75 5,615.75 5,605"/>
<polygon id="0x221e3d0" class="l71d20" points="15.75,645 15.75,653.5 24.25,653.5 24.25,645 35,645 35,655.75 26.5,655.75 26.5,664.25 35,664.25 35,675 24.25,675 24.25,666.5 15.75,666.5 15.75,675 5,675 5,664.25 13.5,664.25 13.5,655.75 5,655.75 5,645"/>
<polygon id="0x221e590" class="l71d20" points="55.75,365 55.75,373.5 64.25,373.5 64.25,365 75,365 75,375.75 66.5,375.75 66.5,384.25 75,384.25 75,395 64.25,395 64.25,386.5 55.75,386.5 55.75,395 45,395 45,384.25 53.5,384.25 53.5,375.75 45,375.75 45,365"/>
<polygon id="0x221e960" class="l71d20" points="55.75,445 55.75,453.5 64.25,453.5 64.25,445 75,445 75,455.75 66.5,455.75 66.5,464.25 75,464.25 75,475 64.25,475 64.25,466.5 55.75,466.5 55.75,475 45,475 45,464.25 53.5,464.25 53.5,455.75 45,455.75 45,445"/>
<polygon id="0x221eb20" class="l71d20" points="55.75,565 55.75,573.5 64.25,573.5 64.25,565 75,565 75,575.75 66.5,575.75 66.5,584.25 75,584.25 75,595 64.25,595 64.25,586.5 55.75,586.5 55.75,595 45,595 45,584.25 53.5,584.25 53.5,575.75 45,575.75 45,565"/>
<polygon id="0x221ece0" class="l71d20" points="55.75,645 55.75,653.5 64.25,653.5 64.25,645 75,645 75,655.75 66.5,655.75 66.5,664.25 75,664.25 75,675 64.25,675 64.25,666.5 55.75,666.5 55.75,675 45,675 45,664.25 53.5,664.25 53.5,655.75 45,655.75 45,645"/>
<polygon id="0x221eea0" class="l71d20" points="95.75,405 95.75,413.5 104.25,413.5 104.25,405 115,405 115,415.75 106.5,415.75 106.5,424.25 115,424.25 115,435 104.25,435 104.25,426.5 95.75,426.5 95.75,435 85,435 85,424.25 93.5,424.25 93.5,415.75 85,415.75 85,405"/>
<polygon id="0x221f060" class="l71d20" points="95.75,605 95.75,613.5 104.25,613.5 104.25,605 115,605 115,615.75 106.5,615.75 106.5,624.25 115,624.25 115,635 104.25,635 104.25,626.5 95.75,626.5 95.75,635 85,635 85,624.25 93.5,624.25 93.5,615.75 85,615.75 85,605"/>
<polygon id="0x221f220" class="l71d20" points="135.75,405 135.75,413.5 144.25,413.5 144.25,405 155,405 155,415.75 146.5,415.75 146.5,424.25 155,424.25 155,435 144.25,435 144.25,426.5 135.75,426.5 135.75,435 125,435 125,424.25 133.5,424.25 133.5,415.75 125,415.75 125,405"/>
<polygon id="0x221f3e0" class="l71d20" points="135.75,605 135.75,613.5 144.25,613.5 144.25,605 155,605 155,615.75 146.5,615.75 146.5,624.25 155,624.25 155,635 144.25,635 144.25,626.5 135.75,626.5 135.75,635 125,635 125,624.25 133.5,624.25 133.5,615.75 125,615.75 125,605"/>
<polygon id="0x221f5a0" class="l71d20" points="175.75,405 175.75,413.5 184.25,413.5 184.25,405 195,405 195,415.75 186.5,415.75 186.5,424.25 195,424.25 195,435 184.25,435 184.25,426.5 175.75,426.5 175.75,435 165,435 165,424.25 173.5,424.25 173.5,415.75 165,415.75 165,405"/>
<polygon id="0x221f760" class="l71d20" points="175.75,605 175.75,613.5 184.25,613.5 184.25,605 195,605 195,615.75 186.5,615.75 186.5,624.25 195,624.25 195,635 184.25,635 184.25,626.5 175.75,626.5 175.75,635 165,635 165,624.25 173.5,624.25 173.5,615.75 165,615.75 165,605"/>
<polygon id="0x221f920" class="l71d20" points="215.75,405 215.75,413.5 224.25,413.5 224.25,405 235,405 235,415.75 226.5,415.75 226.5,424.25 235,424.25 235,435 224.25,435 224.25,426.5 215.75,426.5 215.75,435 205,435 205,424.25 213.5,424.25 213.5,415.75 205,415.75 205,405"/>
<polygon id="0x221fae0" class="l71d20" points="215.75,605 215.75,613.5 224.25,613.5 224.25,605 235,605 235,615.75 226.5,615.75 226.5,624.25 235,624.25 235,635 224.25,635 224.25,626.5 215.75,626.5 215.75,635 205,635 205,624.25 213.5,624.25 213.5,615.75 205,615.75 205,605"/>
<polygon id="0x221fca0" class="l71d20" points="255.75,365 255.75,373.5 264.25,373.5 264.25,365 275,365 275,375.75 266.5,375.75 266.5,384.25 275,384.25 275,395 264.25,395 264.25,386.5 255.75,386.5 255.75,395 245,395 245,384.25 253.5,384.25 253.5,375.75 245,375.75 245,365"/>
<polygon id="0x221fe60" class="l71d20" points="255.75,445 255.75,453.5 264.25,453.5 264.25,445 275,445 275,455.75 266.5,455.75 266.5,464.25 275,464.25 275,475 264.25,475 264.25,466.5 255.75,466.5 255.75,475 245,475 245,464.25 253.5,464.25 253.5,455.75 245,455.75 245,445"/>
<polygon id="0x2220020" class="l71d20" points="255.75,565 255.75,573.5 264.25,573.5 264.25,565 275,565 275,575.75 266.5,575.75 266.5,584.25 275,584.25 275,595 264.25,595 264.25,586.5 255.75,586.5 255.75,595 245,595 245,584.25 253.5,584.25 253.5,575.75 245,575.75 245,565"/>
<polygon id="0x22201e0" class="l71d20" points="255.75,645 255.75,653.5 264.25,653.5 264.25,645 275,645 275,655.75 266.5,655.75 266.5,664.25 275,664.25 275,675 264.25,675 264.25,666.5 255.75,666.5 255.75,675 245,675 245,664.25 253.5,664.25 253.5,655.75 245,655.75 245,645"/>
<polygon id="0x22203a0" class="l71d20" points="295.75,365 295.75,373.5 304.25,373.5 304.25,365 315,365 315,375.75 306.5,375.75 306.5,384.25 315,384.25 315,395 304.25,395 304.25,386.5 295.75,386.5 295.75,395 285,395 285,384.25 293.5,384.25 293.5,375.75 285,375.75 285,365"/>
<polygon id="0x2220560" class="l71d20" points="295.75,405 295.75,413.5 304.25,413.5 304.25,405 315,405 315,415.75 306.5,415.75 306.5,424.25 315,424.25 315,435 304.25,435 304.25,426.5 295.75,426.5 295.75,435 285,435 285,424.25 293.5,424.25 293.5,415.75 285,415.75 285,405"/>
<polygon id="0x2220720" class="l71d20" points="295.75,605 295.75,613.5 304.25,613.5 304.25,605 315,605 315,615.75 306.5,615.75 306.5,624.25 315,624.25 315,635 304.25,635 304.25,626.5 295.75,626.5 295.75,635 285,635 285,624.25 293.5,624.25 293.5,615.75 285,615.75 285,605"/>
<polygon id="0x22208e0" class="l71d20" points="295.75,645 295.75,653.5 304.25,653.5 304.25,645 315,645 315,655.75 306.5,655.75 306.5,664.25 315,664.25 315,675 304.25,675 304.25,666.5 295.75,666.5 295.75,675 285,675 285,664.25 293.5,664.25 293.5,655.75 285,655.75 285,645"/>
<polygon id="0x2220aa0" class="l71d20" points="375.75,125 375.75,133.5 384.25,133.5 384.25,125 395,125 395,135.75 386.5,135.75 386.5,144.25 395,144.25 395,155 384.25,155 384.25,146.5 375.75,146.5 375.75,155 365,155 365,144.25 373.5,144.25 373.5,135.75 365,135.75 365,125"/>
<polygon id="0x2220c60" class="l71d20" points="375.75,165 375.75,173.5 384.25,173.5 384.25,165 395,165 395,175.75 386.5,175.75 386.5,184.25 395,184.25 395,195 384.25,195 384.25,186.5 375.75,186.5 375.75,195 365,195 365,184.25 373.5,184.25 373.5,175.75 365,175.75 365,165"/>
<polygon id="0x2220e20" class="l71d20" points="415.75,45 415.75,53.5 424.25,53.5 424.25,45 435,45 435,55.75 426.5,55.75 426.5,64.25 435,64.25 435,75 424.25,75 424.25,66.5 415.75,66.5 415.75,75 405,75 405,64.25 413.5,64.25 413.5,55.75 405,55.75 405,45"/>
<polygon id="0x2220fe0" class="l71d20" points="415.75,85 415.75,93.5 424.25,93.5 424.25,85 435,85 435,95.75 426.5,95.75 426.5,104.25 435,104.25 435,115 424.25,115 424.25,106.5 415.75,106.5 415.75,115 405,115 405,104.25 413.5,104.25 413.5,95.75 405,95.75 405,85"/>
<polygon id="0x22211a0" class="l71d20" points="415.75,125 415.75,133.5 424.25,133.5 424.25,125 435,125 435,135.75 426.5,135.75 426.5,144.25 435,144.25 435,155 424.25,155 424.25,146.5 415.75,146.5 415.75,155 405,155 405,144.25 413.5,144.25 413.5,135.75 405,135.75 405,125"/>
<polygon id="0x2221360" class="l71d20" points="415.75,165 415.75,173.5 424.25,173.5 424.25,165 435,165 435,175.75 426.5,175.75 426.5,184.25 435,184.25 435,195 424.25,195 424.25,186.5 415.75,186.5 415.75,195 405,195 405,184.25 413.5,184.25 413.5,175.75 405,175.75 405,165"/>
<polygon id="0x2221520" class="l71d20" points="415.75,205 415.75,213.5 424.25,213.5 424.25,205 435,205 435,215.75 426.5,215.75 426.5,224.25 435,224.25 435,235 424.25,235 424.25,226.5 415.75,226.5 415.75,235 405,235 405,224.25 413.5,224.25 413.5,215.75 405,215.75 405,205"/>
<polygon id="0x22216e0" class="l71d20" points="415.75,245 415.75,253.5 424.25,253.5 424.25,245 435,245 435,255.75 426.5,255.75 426.5,264.25 435,264.25 435,275 424.25,275 424.25,266.5 415.75,266.5 415.75,275 405,275 405,264.25 413.5,264.25 413.5,255.75 405,255.75 405,245"/>
<polygon id="0x22218a0" class="l71d20" points="455.75,125 455.75,133.5 464.25,133.5 464.25,125 475,125 475,135.75 466.5,135.75 466.5,144.25 475,144.25 475,155 464.25,155 464.25,146.5 455.75,146.5 455.75,155 445,155 445,144.25 453.5,144.25 453.5,135.75 445,135.75 445,125"/>
<polygon id="0x2221a60" class="l71d20" points="455.75,165 455.75,173.5 464.25,173.5 464.25,165 475,165 475,175.75 466.5,175.75 466.5,184.25 475,184.25 475,195 464.25,195 464.25,186.5 455.75,186.5 455.75,195 445,195 445,184.25 453.5,184.25 453.5,175.75 445,175.75 445,165"/>
<polygon id="0x2221c20" class="l71d20" points="495.75,5 495.75,13.5 504.25,13.5 504.25,5 515,5 515,15.75 506.5,15.75 506.5,24.25 515,24.25 515,35 504.25,35 504.25,26.5 495.75,26.5 495.75,35 485,35 485,24.25 493.5,24.25 493.5,15.75 485,15.75 485,5"/>
<polygon id="0x2221de0" class="l71d20" points="495.75,285 495.75,293.5 504.25,293.5 504.25,285 515,285 515,295.75 506.5,295.75 506.5,304.25 515,304.25 515,315 504.25,315 504.25,306.5 495.75,306.5 495.75,315 485,315 485,304.25 493.5,304.25 493.5,295.75 485,295.75 485,285"/>
<polygon id="0x2221fa0" class="l71d20" points="535.75,5 535.75,13.5 544.25,13.5 544.25,5 555,5 555,15.75 546.5,15.75 546.5,24.25 555,24.25 555,35 544.25,35 544.25,26.5 535.75,26.5 535.75,35 525,35 525,24.25 533.5,24.25 533.5,15.75 525,15.75 525,5"/>
<polygon id="0x21b7520" class="l71d20" points="535.75,285 535.75,293.5 544.25,293.5 544.25,285 555,285 555,295.75 546.5,295.75 546.5,304.25 555,304.25 555,315 544.25,315 544.25,306.5 535.75,306.5 535.75,315 525,315 525,304.25 533.5,304.25 533.5,295.75 525,295.75 525,285"/>
<polygon id="0x21bd430" class="l71d20" points="575.75,125 575.75,133.5 584.25,133.5 584.25,125 595,125 595,135.75 586.5,135.75 586.5,144.25 595,144.25 595,155 584.25,155 584.25,146.5 575.75,146.5 575.75,155 565,155 565,144.25 573.5,144.25 573.5,135.75 565,135.75 565,125"/>
<polygon id="0x21f9df0" class="l71d20" points="575.75,165 575.75,173.5 584.25,173.5 584.25,165 595,165 595,175.75 586.5,175.75 586.5,184.25 595,184.25 595,195 584.25,195 584.25,186.5 575.75,186.5 575.75,195 565,195 565,184.25 573.5,184.25 573.5,175.75 565,175.75 565,165"/>
<polygon id="0x1f30430" class="l71d20" points="615.75,45 615.75,53.5 624.25,53.5 624.25,45 635,45 635,55.75 626.5,55.75 626.5,64.25 635,64.25 635,75 624.25,75 624.25,66.5 615.75,66.5 615.75,75 605,75 605,64.25 613.5,64.25 613.5,55.75 605,55.75 605,45"/>
<polygon id="0x2033c70" class="l71d20" points="615.75,85 615.75,93.5 624.25,93.5 624.25,85 635,85 635,95.75 626.5,95.75 626.5,104.25 635,104.25 635,115 624.25,115 624.25,106.5 615.75,106.5 615.75,115 605,115 605,104.25 613.5,104.25 613.5,95.75 605,95.75 605,85"/>
<polygon id="0x207cfe0" class="l71d20" points="615.75,125 615.75,133.5 624.25,133.5 624.25,125 635,125 635,135.75 626.5,135.75 626.5,144.25 635,144.25 635,155 624.25,155 624.25,146.5 615.75,146.5 615.75,155 605,155 605,144.25 613.5,144.25 613.5,135.75 605,135.75 605,125"/>
<polygon id="0x20f68d0" class="l71d20" points="615.75,165 615.75,173.5 624.25,173.5 624.25,165 635,165 635,175.75 626.5,175.75 626.5,184.25 635,184.25 635,195 624.25,195 624.25,186.5 615.75,186.5 615.75,195 605,195 605,184.25 613.5,184.25 613.5,175.75 605,175.75 605,165"/>
<polygon id="0x2129610" class="l71d20" points="615.75,205 615.75,213.5 624.25,213.5 624.25,205 635,205 635,215.75 626.5,215.75 626.5,224.25 635,224.25 635,235 624.25,235 624.25,226.5 615.75,226.5 615.75,235 605,235 605,224.25 613.5,224.25 613.5,215.75 605,215.75 605,205"/>
<polygon id="0x2132740" class="l71d20" points="615.75,245 615.75,253.5 624.25,253.5 624.25,245 635,245 635,255.75 626.5,255.75 626.5,264.25 635,264.25 635,275 624.25,275 624.25,266.5 615.75,266.5 615.75,275 605,275 605,264.25 613.5,264.25 613.5,255.75 605,255.75 605,245"/>
<polygon id="0x21654d0" class="l71d20" points="655.75,125 655.75,133.5 664.25,133.5 664.25,125 675,125 675,135.75 666.5,135.75 666.5,144.25 675,144.25 675,155 664.25,155 664.25,146.5 655.75,146.5 655.75,155 645,155 645,144.25 653.5,144.25 653.5,135.75 645,135.75 645,125"/>
<polygon id="0x21718c0" class="l71d20" points="655.75,165 655.75,173.5 664.25,173.5 664.25,165 675,165 675,175.75 666.5,175.75 666.5,184.25 675,184.25 675,195 664.25,195 664.25,186.5 655.75,186.5 655.75,195 645,195 645,184.25 653.5,184.25 653.5,175.75 645,175.75 645,165"/>
<polygon id="0x2176cd0" class="l71d20" points="375.75,365 375.75,373.5 384.25,373.5 384.25,365 395,365 395,375.75 386.5,375.75 386.5,384.25 395,384.25 395,395 384.25,395 384.25,386.5 375.75,386.5 375.75,395 365,395 365,384.25 373.5,384.25 373.5,375.75 365,375.75 365,365"/>
<polygon id="0x21c97d0" class="l71d20" points="375.75,485 375.75,493.5 384.25,493.5 384.25,485 395,485 395,495.75 386.5,495.75 386.5,504.25 395,504.25 395,515 384.25,515 384.25,506.5 375.75,506.5 375.75,515 365,515 365,504.25 373.5,504.25 373.5,495.75 365,495.75 365,485"/>
<polygon id="0x21cbc30" class="l71d20" points="375.75,525 375.75,533.5 384.25,533.5 384.25,525 395,525 395,535.75 386.5,535.75 386.5,544.25 395,544.25 395,555 384.25,555 384.25,546.5 375.75,546.5 375.75,555 365,555 365,544.25 373.5,544.25 373.5,535.75 365,535.75 365,525"/>
<polygon id="0x1f5afb0" class="l71d20" points="375.75,645 375.75,653.5 384.25,653.5 384.25,645 395,645 395,655.75 386.5,655.75 386.5,664.25 395,664.25 395,675 384.25,675 384.25,666.5 375.75,666.5 375.75,675 365,675 365,664.25 373.5,664.25 373.5,655.75 365,655.75 365,645"/>
<polygon id="0x1fe48e0" class="l71d20" points="415.75,365 415.75,373.5 424.25,373.5 424.25,365 435,365 435,375.75 426.5,375.75 426.5,384.25 435,384.25 435,395 424.25,395 424.25,386.5 415.75,386.5 415.75,395 405,395 405,384.25 413.5,384.25 413.5,375.75 405,375.75 405,365"/>
<polygon id="0x1ff2f90" class="l71d20" points="415.75,405 415.75,413.5 424.25,413.5 424.25,405 435,405 435,415.75 426.5,415.75 426.5,424.25 435,424.25 435,435 424.25,435 424.25,426.5 415.75,426.5 415.75,435 405,435 405,424.25 413.5,424.25 413.5,415.75 405,415.75 405,405"/>
<polygon id="0x2161d70" class="l71d20" points="415.75,605 415.75,613.5 424.25,613.5 424.25,605 435,605 435,615.75 426.5,615.75 426.5,624.25 435,624.25 435,635 424.25,635 424.25,626.5 415.75,626.5 415.75,635 405,635 405,624.25 413.5,624.25 413.5,615.75 405,615.75 405,605"/>
<polygon id="0x2188720" class="l71d20" points="415.75,645 415.75,653.5 424.25,653.5 424.25,645 435,645 435,655.75 426.5,655.75 426.5,664.25 435,664.25 435,675 424.25,675 424.25,666.5 415.75,666.5 415.75,675 405,675 405,664.25 413.5,664.25 413.5,655.75 405,655.75 405,645"/>
<polygon id="0x1fff980" class="l71d20" points="455.75,365 455.75,373.5 464.25,373.5 464.25,365 475,365 475,375.75 466.5,375.75 466.5,384.25 475,384.25 475,395 464.25,395 464.25,386.5 455.75,386.5 455.75,395 445,395 445,384.25 453.5,384.25 453.5,375.75 445,375.75 445,365"/>
<polygon id="0x1fff9f0" class="l71d20" points="455.75,645 455.75,653.5 464.25,653.5 464.25,645 475,645 475,655.75 466.5,655.75 466.5,664.25 475,664.25 475,675 464.25,675 464.25,666.5 455.75,666.5 455.75,675 445,675 445,664.25 453.5,664.25 453.5,655.75 445,655.75 445,645"/>
<polygon id="0x2038420" class="l71d20" points="495.75,405 495.75,413.5 504.25,413.5 504.25,405 515,405 515,415.75 506.5,415.75 506.5,424.25 515,424.25 515,435 504.25,435 504.25,426.5 495.75,426.5 495.75,435 485,435 485,424.25 493.5,424.25 493.5,415.75 485,415.75 485,405"/>
<polygon id="0x2038490" class="l71d20" points="495.75,445 495.75,453.5 504.25,453.5 504.25,445 515,445 515,455.75 506.5,455.75 506.5,464.25 515,464.25 515,475 504.25,475 504.25,466.5 495.75,466.5 495.75,475 485,475 485,464.25 493.5,464.25 493.5,455.75 485,455.75 485,445"/>
<polygon id="0x205d7a0" class="l71d20" points="495.75,565 495.75,573.5 504.25,573.5 504.25,565 515,565 515,575.75 506.5,575.75 506.5,584.25 515,584.25 515,595 504.25,595 504.25,586.5 495.75,586.5 495.75,595 485,595 485,584.25 493.5,584.25 493.5,575.75 485,575.75 485,565"/>
<polygon id="0x205d810" class="l71d20" points="495.75,605 495.75,613.5 504.25,613.5 504.25,605 515,605 515,615.75 506.5,615.75 506.5,624.25 515,624.25 515,635 504.25,635 504.25,626.5 495.75,626.5 495.75,635 485,635 485,624.25 493.5,624.25 493.5,615.75 485,615.75 485,605"/>
<polygon id="0x2088410" class="l71d20" points="535.75,405 535.75,413.5 544.25,413.5 544.25,405 555,405 555,415.75 546.5,415.75 546.5,424.25 555,424.25 555,435 544.25,435 544.25,426.5 535.75,426.5 535.75,435 525,435 525,424.25 533.5,424.25 533.5,415.75 525,415.75 525,405"/>
<polygon id="0x2088480" class="l71d20" points="535.75,445 535.75,453.5 544.25,453.5 544.25,445 555,445 555,455.75 546.5,455.75 546.5,464.25 555,464.25 555,475 544.25,475 544.25,466.5 535.75,466.5 535.75,475 525,475 525,464.25 533.5,464.25 533.5,455.75 525,455.75 525,445"/>
<polygon id="0x21ad6a0" class="l71d20" points="535.75,565 535.75,573.5 544.25,573.5 544.25,565 555,565 555,575.75 546.5,575.75 546.5,584.25 555,584.25 555,595 544.25,595 544.25,586.5 535.75,586.5 535.75,595 525,595 525,584.25 533.5,584.25 533.5,575.75 525,575.75 525,565"/>
<polygon id="0x21ad710" class="l71d20" points="535.75,605 535.75,613.5 544.25,613.5 544.25,605 555,605 555,615.75 546.5,615.75 546.5,624.25 555,624.25 555,635 544.25,635 544.25,626.5 535.75,626.5 535.75,635 525,635 525,624.25 533.5,624.25 533.5,615.75 525,615.75 525,605"/>
<polygon id="0x21fdbd0" class="l71d20" points="575.75,365 575.75,373.5 584.25,373.5 584.25,365 595,365 595,375.75 586.5,375.75 586.5,384.25 595,384.25 595,395 584.25,395 584.25,386.5 575.75,386.5 575.75,395 565,395 565,384.25 573.5,384.25 573.5,375.75 565,375.75 565,365"/>
<polygon id="0x21fdc40" class="l71d20" points="575.75,645 575.75,653.5 584.25,653.5 584.25,645 595,645 595,655.75 586.5,655.75 586.5,664.25 595,664.25 595,675 584.25,675 584.25,666.5 575.75,666.5 575.75,675 565,675 565,664.25 573.5,664.25 573.5,655.75 565,655.75 565,645"/>
<polygon id="0x2204880" class="l71d20" points="615.75,365 615.75,373.5 624.25,373.5 624.25,365 635,365 635,375.75 626.5,375.75 626.5,384.25 635,384.25 635,395 624.25,395 624.25,386.5 615.75,386.5 615.75,395 605,395 605,384.25 613.5,384.25 613.5,375.75 605,375.75 605,365"/>
<polygon id="0x22048f0" class="l71d20" points="615.75,405 615.75,413.5 624.25,413.5 624.25,405 635,405 635,415.75 626.5,415.75 626.5,424.25 635,424.25 635,435 624.25,435 624.25,426.5 615.75,426.5 615.75,435 605,435 605,424.25 613.5,424.25 613.5,415.75 605,415.75 605,405"/>
<polygon id="0x1fccff0" class="l71d20" points="615.75,605 615.75,613.5 624.25,613.5 624.25,605 635,605 635,615.75 626.5,615.75 626.5,624.25 635,624.25 635,635 624.25,635 624.25,626.5 615.75,626.5 615.75,635 605,635 605,624.25 613.5,624.25 613.5,615.75 605,615.75 605,605"/>
<polygon id="0x2036400" class="l71d20" points="615.75,645 615.75,653.5 624.25,653.5 624.25,645 635,645 635,655.75 626.5,655.75 626.5,664.25 635,664.25 635,675 624.25,675 624.25,666.5 615.75,666.5 615.75,675 605,675 605,664.25 613.5,664.25 613.5,655.75 605,655.75 605,645"/>
<polygon id="0x20f8340" class="l71d20" points="655.75,365 655.75,373.5 664.25,373.5 664.25,365 675,365 675,375.75 666.5,375.75 666.5,384.25 675,384.25 675,395 664.25,395 664.25,386.5 655.75,386.5 655.75,395 645,395 645,384.25 653.5,384.25 653.5,375.75 645,375.75 645,365"/>
<polygon id="0x21043b0" class="l71d20" points="655.75,485 655.75,493.5 664.25,493.5 664.25,485 675,485 675,495.75 666.5,495.75 666.5,504.25 675,504.25 675,515 664.25,515 664.25,506.5 655.75,506.5 655.75,515 645,515 645,504.25 653.5,504.25 653.5,495.75 645,495.75 645,485"/>
<polygon id="0x2187020" class="l71d20" points="655.75,525 655.75,533.5 664.25,533.5 664.25,525 675,525 675,535.75 666.5,535.75 666.5,544.25 675,544.25 675,555 664.25,555 664.25,546.5 655.75,546.5 655.75,555 645,555 645,544.25 653.5,544.25 653.5,535.75 645,535.75 645,525"/>
<polygon id="0x21f8d80" class="l71d20" points="655.75,645 655.75,653.5 664.25,653.5 664.25,645 675,645 675,655.75 666.5,655.75 666.5,664.25 675,664.25 675,675 664.25,675 664.25,666.5 655.75,666.5 655.75,675 645,675 645,664.25 653.5,664.25 653.5,655.75 645,655.75 645,645"/>
<polygon id="0x21ed5c0" class="l71d20" points="735.75,5 735.75,13.5 744.25,13.5 744.25,5 755,5 755,15.75 746.5,15.75 746.5,24.25 755,24.25 755,35 744.25,35 744.25,26.5 735.75,26.5 735.75,35 725,35 725,24.25 733.5,24.25 733.5,15.75 725,15.75 725,5"/>
<polygon id="0x221bb20" class="l71d20" points="735.75,45 735.75,53.5 744.25,53.5 744.25,45 755,45 755,55.75 746.5,55.75 746.5,64.25 755,64.25 755,75 744.25,75 744.25,66.5 735.75,66.5 735.75,75 725,75 725,64.25 733.5,64.25 733.5,55.75 725,55.75 725,45"/>
<polygon id="0x221bc40" class="l71d20" points="735.75,245 735.75,253.5 744.25,253.5 744.25,245 755,245 755,255.75 746.5,255.75 746.5,264.25 755,264.25 755,275 744.25,275 744.25,266.5 735.75,266.5 735.75,275 725,275 725,264.25 733.5,264.25 733.5,255.75 725,255.75 725,245"/>
<polygon id="0x2145e90" class="l71d20" points="735.75,285 735.75,293.5 744.25,293.5 744.25,285 755,285 755,295.75 746.5,295.75 746.5,304.25 755,304.25 755,315 744.25,315 744.25,306.5 735.75,306.5 735.75,315 725,315 725,304.25 733.5,304.25 733.5,295.75 725,295.75 725,285"/>
<polygon id="0x2145f00" class="l71d20" points="775.75,5 775.75,13.5 784.25,13.5 784.25,5 795,5 795,15.75 786.5,15.75 786.5,24.25 795,24.25 795,35 784.25,35 784.25,26.5 775.75,26.5 775.75,35 765,35 765,24.25 773.5,24.25 773.5,15.75 765,15.75 765,5"/>
<polygon id="0x2197b20" class="l71d20" points="775.75,45 775.75,53.5 784.25,53.5 784.25,45 795,45 795,55.75 786.5,55.75 786.5,64.25 795,64.25 795,75 784.25,75 784.25,66.5 775.75,66.5 775.75,75 765,75 765,64.25 773.5,64.25 773.5,55.75 765,55.75 765,45"/>
<polygon id="0x20854d0" class="l71d20" points="775.75,125 775.75,133.5 784.25,133.5 784.25,125 795,125 795,135.75 786.5,135.75 786.5,144.25 795,144.25 795,155 784.25,155 784.25,146.5 775.75,146.5 775.75,155 765,155 765,144.25 773.5,144.25 773.5,135.75 765,135.75 765,125"/>
<polygon id="0x20d4f10" class="l71d20" points="775.75,165 775.75,173.5 784.25,173.5 784.25,165 795,165 795,175.75 786.5,175.75 786.5,184.25 795,184.25 795,195 784.25,195 784.25,186.5 775.75,186.5 775.75,195 765,195 765,184.25 773.5,184.25 773.5,175.75 765,175.75 765,165"/>
<polygon id="0x2127720" class="l71d20" points="775.75,245 775.75,253.5 784.25,253.5 784.25,245 795,245 795,255.75 786.5,255.75 786.5,264.25 795,264.25 795,275 784.25,275 784.25,266.5 775.75,266.5 775.75,275 765,275 765,264.25 773.5,264.25 773.5,255.75 765,255.75 765,245"/>
<polygon id="0x21088b0" class="l71d20" points="775.75,285 775.75,293.5 784.25,293.5 784.25,285 795,285 795,295.75 786.5,295.75 786.5,304.25 795,304.25 795,315 784.25,315 784.25,306.5 775.75,306.5 775.75,315 765,315 765,304.25 773.5,304.25 773.5,295.75 765,295.75 765,285"/>
<polygon id="0x214d6e0" class="l71d20" points="815.75,5 815.75,13.5 824.25,13.5 824.25,5 835,5 835,15.75 826.5,15.75 826.5,24.25 835,24.25 835,35 824.25,35 824.25,26.5 815.75,26.5 815.75,35 805,35 805,24.25 813.5,24.25 813.5,15.75 805,15.75 805,5"/>
<polygon id="0x2197b90" class="l71d20" points="815.75,125 815.75,133.5 824.25,133.5 824.25,125 835,125 835,135.75 826.5,135.75 826.5,144.25 835,144.25 835,155 824.25,155 824.25,146.5 815.75,146.5 815.75,155 805,155 805,144.25 813.5,144.25 813.5,135.75 805,135.75 805,125"/>
<polygon id="0x209add0" class="l71d20" points="815.75,165 815.75,173.5 824.25,173.5 824.25,165 835,165 835,175.75 826.5,175.75 826.5,184.25 835,184.25 835,195 824.25,195 824.25,186.5 815.75,186.5 815.75,195 805,195 805,184.25 813.5,184.25 813.5,175.75 805,175.75 805,165"/>
<polygon id="0x207f150" class="l71d20" points="815.75,285 815.75,293.5 824.25,293.5 824.25,285 835,285 835,295.75 826.5,295.75 826.5,304.25 835,304.25 835,315 824.25,315 824.25,306.5 815.75,306.5 815.75,315 805,315 805,304.25 813.5,304.25 813.5,295.75 805,295.75 805,285"/>
<polygon id="0x2101240" class="l71d20" points="855.75,125 855.75,133.5 864.25,133.5 864.25,125 875,125 875,135.75 866.5,135.75 866.5,144.25 875,144.25 875,155 864.25,155 864.25,146.5 855.75,146.5 855.75,155 845,155 845,144.25 853.5,144.25 853.5,135.75 845,135.75 845,125"/>
<polygon id="0x2168f00" class="l71d20" points="855.75,165 855.75,173.5 864.25,173.5 864.25,165 875,165 875,175.75 866.5,175.75 866.5,184.25 875,184.25 875,195 864.25,195 864.25,186.5 855.75,186.5 855.75,195 845,195 845,184.25 853.5,184.25 853.5,175.75 845,175.75 845,165"/>
<polygon id="0x21b1b10" class="l71d20" points="895.75,125 895.75,133.5 904.25,133.5 904.25,125 915,125 915,135.75 906.5,135.75 906.5,144.25 915,144.25 915,155 904.25,155 904.25,146.5 895.75,146.5 895.75,155 885,155 885,144.25 893.5,144.25 893.5,135.75 885,135.75 885,125"/>
<polygon id="0x21d89c0" class="l71d20" points="895.75,165 895.75,173.5 904.25,173.5 904.25,165 915,165 915,175.75 906.5,175.75 906.5,184.25 915,184.25 915,195 904.25,195 904.25,186.5 895.75,186.5 895.75,195 885,195 885,184.25 893.5,184.25 893.5,175.75 885,175.75 885,165"/>
<polygon id="0x1f5ba30" class="l71d20" points="935.75,5 935.75,13.5 944.25,13.5 944.25,5 955,5 955,15.75 946.5,15.75 946.5,24.25 955,24.25 955,35 944.25,35 944.25,26.5 935.75,26.5 935.75,35 925,35 925,24.25 933.5,24.25 933.5,15.75 925,15.75 925,5"/>
<polygon id="0x221bfc0" class="l71d20" points="935.75,125 935.75,133.5 944.25,133.5 944.25,125 955,125 955,135.75 946.5,135.75 946.5,144.25 955,144.25 955,155 944.25,155 944.25,146.5 935.75,146.5 935.75,155 925,155 925,144.25 933.5,144.25 933.5,135.75 925,135.75 925,125"/>
<polygon id="0x1fb8bf0" class="l71d20" points="935.75,165 935.75,173.5 944.25,173.5 944.25,165 955,165 955,175.75 946.5,175.75 946.5,184.25 955,184.25 955,195 944.25,195 944.25,186.5 935.75,186.5 935.75,195 925,195 925,184.25 933.5,184.25 933.5,175.75 925,175.75 925,165"/>
<polygon id="0x1ffb9f0" class="l71d20" points="935.75,285 935.75,293.5 944.25,293.5 944.25,285 955,285 955,295.75 946.5,295.75 946.5,304.25 955,304.25 955,315 944.25,315 944.25,306.5 935.75,306.5 935.75,315 925,315 925,304.25 933.5,304.25 933.5,295.75 925,295.75 925,285"/>
<polygon id="0x1ffe4c0" class="l71d20" points="975.75,5 975.75,13.5 984.25,13.5 984.25,5 995,5 995,15.75 986.5,15.75 986.5,24.25 995,24.25 995,35 984.25,35 984.25,26.5 975.75,26.5 975.75,35 965,35 965,24.25 973.5,24.25 973.5,15.75 965,15.75 965,5"/>
<polygon id="0x204f910" class="l71d20" points="975.75,45 975.75,53.5 984.25,53.5 984.25,45 995,45 995,55.75 986.5,55.75 986.5,64.25 995,64.25 995,75 984.25,75 984.25,66.5 975.75,66.5 975.75,75 965,75 965,64.25 973.5,64.25 973.5,55.75 965,55.75 965,45"/>
<polygon id="0x205e590" class="l71d20" points="975.75,125 975.75,133.5 984.25,133.5 984.25,125 995,125 995,135.75 986.5,135.75 986.5,144.25 995,144.25 995,155 984.25,155 984.25,146.5 975.75,146.5 975.75,155 965,155 965,144.25 973.5,144.25 973.5,135.75 965,135.75 965,125"/>
<polygon id="0x2114fd0" class="l71d20" points="975.75,165 975.75,173.5 984.25,173.5 984.25,165 995,165 995,175.75 986.5,175.75 986.5,184.25 995,184.25 995,195 984.25,195 984.25,186.5 975.75,186.5 975.75,195 965,195 965,184.25 973.5,184.25 973.5,175.75 965,175.75 965,165"/>
<polygon id="0x218feb0" class="l71d20" points="975.75,245 975.75,253.5 984.25,253.5 984.25,245 995,245 995,255.75 986.5,255.75 986.5,264.25 995,264.25 995,275 984.25,275 984.25,266.5 975.75,266.5 975.75,275 965,275 965,264.25 973.5,264.25 973.5,255.75 965,255.75 965,245"/>
<polygon id="0x2017770" class="l71d20" points="975.75,285 975.75,293.5 984.25,293.5 984.25,285 995,285 995,295.75 986.5,295.75 986.5,304.25 995,304.25 995,315 984.25,315 984.25,306.5 975.75,306.5 975.75,315 965,315 965,304.25 973.5,304.25 973.5,295.75 965,295.75 965,285"/>
<polygon id="0x2038b70" class="l71d20" points="1015.75,5 1015.75,13.5 1024.25,13.5 1024.25,5 1035,5 1035,15.75 1026.5,15.75 1026.5,24.25 1035,24.25 1035,35 1024.25,35 1024.25,26.5 1015.75,26.5 1015.75,35 1005,35 1005,24.25 1013.5,24.25 1013.5,15.75 1005,15.75 1005,5"/>
<polygon id="0x206ba20" class="l71d20" points="1015.75,45 1015.75,53.5 1024.25,53.5 1024.25,45 1035,45 1035,55.75 1026.5,55.75 1026.5,64.25 1035,64.25 1035,75 1024.25,75 1024.25,66.5 1015.75,66.5 1015.75,75 1005,75 1005,64.25 1013.5,64.25 1013.5,55.75 1005,55.75 1005,45"/>
<polygon id="0x210b8a0" class="l71d20" points="1015.75,245 1015.75,253.5 1024.25,253.5 1024.25,245 1035,245 1035,255.75 1026.5,255.75 1026.5,264.25 1035,264.25 1035,275 1024.25,275 1024.25,266.5 1015.75,266.5 1015.75,275 1005,275 1005,264.25 1013.5,264.25 1013.5,255.75 1005,255.75 1005,245"/>
<polygon id="0x2150190" class="l71d20" points="1015.75,285 1015.75,293.5 1024.25,293.5 1024.25,285 1035,285 1035,295.75 1026.5,295.75 1026.5,304.25 1035,304.25 1035,315 1024.25,315 1024.25,306.5 1015.75,306.5 1015.75,315 1005,315 1005,304.25 1013.5,304.25 1013.5,295.75 1005,295.75 1005,285"/>
<polygon id="0x2197760" class="l71d20" points="735.75,445 735.75,453.5 744.25,453.5 744.25,445 755,445 755,455.75 746.5,455.75 746.5,464.25 755,464.25 755,475 744.25,475 744.25,466.5 735.75,466.5 735.75,475 725,475 725,464.25 733.5,464.25 733.5,455.75 725,455.75 725,445"/>
<polygon id="0x2162c50" class="l71d20" points="735.75,485 735.75,493.5 744.25,493.5 744.25,485 755,485 755,495.75 746.5,495.75 746.5,504.25 755,504.25 755,515 744.25,515 744.25,506.5 735.75,506.5 735.75,515 725,515 725,504.25 733.5,504.25 733.5,495.75 725,495.75 725,485"/>
<polygon id="0x2162cc0" class="l71d20" points="735.75,525 735.75,533.5 744.25,533.5 744.25,525 755,525 755,535.75 746.5,535.75 746.5,544.25 755,544.25 755,555 744.25,555 744.25,546.5 735.75,546.5 735.75,555 725,555 725,544.25 733.5,544.25 733.5,535.75 725,535.75 725,525"/>
<polygon id="0x2184dd0" class="l71d20" points="735.75,565 735.75,573.5 744.25,573.5 744.25,565 755,565 755,575.75 746.5,575.75 746.5,584.25 755,584.25 755,595 744.25,595 744.25,586.5 735.75,586.5 735.75,595 725,595 725,584.25 733.5,584.25 733.5,575.75 725,575.75 725,565"/>
<polygon id="0x2184e40" class="l71d20" points="775.75,445 775.75,453.5 784.25,453.5 784.25,445 795,445 795,455.75 786.5,455.75 786.5,464.25 795,464.25 795,475 784.25,475 784.25,466.5 775.75,466.5 775.75,475 765,475 765,464.25 773.5,464.25 773.5,455.75 765,455.75 765,445"/>
<polygon id="0x1f259b0" class="l71d20" points="775.75,565 775.75,573.5 784.25,573.5 784.25,565 795,565 795,575.75 786.5,575.75 786.5,584.25 795,584.25 795,595 784.25,595 784.25,586.5 775.75,586.5 775.75,595 765,595 765,584.25 773.5,584.25 773.5,575.75 765,575.75 765,565"/>
<polygon id="0x1f25a20" class="l71d20" points="815.75,365 815.75,373.5 824.25,373.5 824.25,365 835,365 835,375.75 826.5,375.75 826.5,384.25 835,384.25 835,395 824.25,395 824.25,386.5 815.75,386.5 815.75,395 805,395 805,384.25 813.5,384.25 813.5,375.75 805,375.75 805,365"/>
<polygon id="0x20f3e70" class="l71d20" points="815.75,645 815.75,653.5 824.25,653.5 824.25,645 835,645 835,655.75 826.5,655.75 826.5,664.25 835,664.25 835,675 824.25,675 824.25,666.5 815.75,666.5 815.75,675 805,675 805,664.25 813.5,664.25 813.5,655.75 805,655.75 805,645"/>
<polygon id="0x20f3ee0" class="l71d20" points="855.75,485 855.75,493.5 864.25,493.5 864.25,485 875,485 875,495.75 866.5,495.75 866.5,504.25 875,504.25 875,515 864.25,515 864.25,506.5 855.75,506.5 855.75,515 845,515 845,504.25 853.5,504.25 853.5,495.75 845,495.75 845,485"/>
<polygon id="0x217b580" class="l71d20" points="855.75,525 855.75,533.5 864.25,533.5 864.25,525 875,525 875,535.75 866.5,535.75 866.5,544.25 875,544.25 875,555 864.25,555 864.25,546.5 855.75,546.5 855.75,555 845,555 845,544.25 853.5,544.25 853.5,535.75 845,535.75 845,525"/>
<polygon id="0x217b5f0" class="l71d20" points="895.75,485 895.75,493.5 904.25,493.5 904.25,485 915,485 915,495.75 906.5,495.75 906.5,504.25 915,504.25 915,515 904.25,515 904.25,506.5 895.75,506.5 895.75,515 885,515 885,504.25 893.5,504.25 893.5,495.75 885,495.75 885,485"/>
<polygon id="0x21c1f60" class="l71d20" points="895.75,525 895.75,533.5 904.25,533.5 904.25,525 915,525 915,535.75 906.5,535.75 906.5,544.25 915,544.25 915,555 904.25,555 904.25,546.5 895.75,546.5 895.75,555 885,555 885,544.25 893.5,544.25 893.5,535.75 885,535.75 885,525"/>
<polygon id="0x21c1fd0" class="l71d20" points="935.75,365 935.75,373.5 944.25,373.5 944.25,365 955,365 955,375.75 946.5,375.75 946.5,384.25 955,384.25 955,395 944.25,395 944.25,386.5 935.75,386.5 935.75,395 925,395 925,384.25 933.5,384.25 933.5,375.75 925,375.75 925,365"/>
<polygon id="0x21c8df0" class="l71d20" points="935.75,645 935.75,653.5 944.25,653.5 944.25,645 955,645 955,655.75 946.5,655.75 946.5,664.25 955,664.25 955,675 944.25,675 944.25,666.5 935.75,666.5 935.75,675 925,675 925,664.25 933.5,664.25 933.5,655.75 925,655.75 925,645"/>
<polygon id="0x21c8e60" class="l71d20" points="975.75,445 975.75,453.5 984.25,453.5 984.25,445 995,445 995,455.75 986.5,455.75 986.5,464.25 995,464.25 995,475 984.25,475 984.25,466.5 975.75,466.5 975.75,475 965,475 965,464.25 973.5,464.25 973.5,455.75 965,455.75 965,445"/>
<polygon id="0x21bda80" class="l71d20" points="975.75,565 975.75,573.5 984.25,573.5 984.25,565 995,565 995,575.75 986.5,575.75 986.5,584.25 995,584.25 995,595 984.25,595 984.25,586.5 975.75,586.5 975.75,595 965,595 965,584.25 973.5,584.25 973.5,575.75 965,575.75 965,565"/>
<polygon id="0x21bdaf0" class="l71d20" points="1015.75,445 1015.75,453.5 1024.25,453.5 1024.25,445 1035,445 1035,455.75 1026.5,455.75 1026.5,464.25 1035,464.25 1035,475 1024.25,475 1024.25,466.5 1015.75,466.5 1015.75,475 1005,475 1005,464.25 1013.5,464.25 1013.5,455.75 1005,455.75 1005,445"/>
<polygon id="0x21fd2e0" class="l71d20" points="1015.75,485 1015.75,493.5 1024.25,493.5 1024.25,485 1035,485 1035,495.75 1026.5,495.75 1026.5,504.25 1035,504.25 1035,515 1024.25,515 1024.25,506.5 1015.75,506.5 1015.75,515 1005,515 1005,504.25 1013.5,504.25 1013.5,495.75 1005,495.75 1005,485"/>
<polygon id="0x21fd350" class="l71d20" points="1015.75,525 1015.75,533.5 1024.25,533.5 1024.25,525 1035,525 1035,535.75 1026.5,535.75 1026.5,544.25 1035,544.25 1035,555 1024.25,555 1024.25,546.5 1015.75,546.5 1015.75,555 1005,555 1005,544.25 1013.5,544.25 1013.5,535.75 1005,535.75 1005,525"/>
<polygon id="0x22236a0" class="l71d20" points="1015.75,565 1015.75,573.5 1024.25,573.5 1024.25,565 1035,565 1035,575.75 1026.5,575.75 1026.5,584.25 1035,584.25 1035,595 1024.25,595 1024.25,586.5 1015.75,586.5 1015.75,595 1005,595 1005,584.25 1013.5,584.25 1013.5,575.75 1005,575.75 1005,565"/>
<polygon id="0x221c050" class="l235d4" points="0,0 40,0 40,40 0,40"/>
</g>
</svg>