<?xml version="1.0" encoding="UTF-8"?>
<svg xmlns="http://www.w3.org/2000/svg" xmlns:xlink="http://www.w3.org/1999/xlink" width="1138.5" height="778.5" viewBox="-51.75 -726.75 1138.5 778.5">
<defs>
<style type="text/css">
.l235d4 {stroke: #0067A5; fill: #0067A5; fill-opacity: 0.5;}
.l71d20 {stroke: #B3446C; fill: #B3446C; fill-opacity: 0.5;}
</style>
</defs>
<rect x="-51.75" y="-726.75" width="1138.5" height="778.5" fill="#222222" stroke="none"/>
<g id="my_logo" transform="scale(1 -1)">
<polygon id="0x11f1e30" class="l71d20" points="15.75,5 15.75,13.5 24.25,13.5 24.25,5 35,5 35,15.75 26.5,15.75 26.5,24.25 35,24.25 35,35 24.25,35 24.25,26.5 15.75,26.5 15.75,35 5,35 5,24.25 13.5,24.25 13.5,15.75 5,15.75 5,5"/>
<polygon id="0x11f2a20" class="l71d20" points="15.75,45 15.75,53.5 24.25,53.5 24.25,45 35,45 35,55.75 26.5,55.75 26.5,64.25 35,64.25 35,75 24.25,75 24.25,66.5 15.75,66.5 15.75,75 5,75 5,64.25 13.5,64.25 13.5,55.75 5,55.75 5,45"/>
<polygon id="0x11f2b10" class="l71d20" points="15.75,85 15.75,93.5 24.25,93.5 24.25,85 35,85 35,95.75 26.5,95.75 26.5,104.25 35,104.25 35,115 24.25,115 24.25,106.5 15.75,106.5 15.75,115 5,115 5,104.25 13.5,104.25 13.5,95.75 5,95.75 5,85"/>
<polygon id="0x11f2b80" class="l71d20" points="15.75,205 15.75,213.5 24.25,213.5 24.25,205 35,205 35,215.75 26.5,215.75 26.5,224.25 35,224.25 35,235 24.25,235 24.25,226.5 15.75,226.5 15.75,235 5,235 5,224.25 13.5,224.25 13.5,215.75 5,215.75 5,205"/>
<polygon id="0x11f2bf0" class="l71d20" points="15.75,245 15.75,253.5 24.25,253.5 24.25,245 35,245 35,255.75 26.5,255.75 26.5,264.25 35,264.25 35,275 24.25,275 24.25,266.5 15.75,266.5 15.75,275 5,275 5,264.25 13.5,264.25 13.5,255.75 5,255.75 5,245"/>
<polygon id="0x11f2c60" class="l71d20" points="15.75,285 15.75,293.5 24.25,293.5 24.25,285 35,285 35,295.75 26.5,295.75 26.5,304.25 35,304.25 35,315 24.25,315 24.25,306.5 15.75,306.5 15.75,315 5,315 5,304.25 13.5,304.25 13.5,295.75 5,295.75 5,285"/>
<polygon id="0x11f2d20" class="l71d20" points="55.75,5 55.75,13.5 64.25,13.5 64.25,5 75,5 75,15.75 66.5,15.75 66.5,24.25 75,24.25 75,35 64.25,35 64.25,26.5 55.75,26.5 55.75,35 45,35 45,24.25 53.5,24.25 53.5,15.75 45,15.75 45,5"/>
<polygon id="0x11f2d90" class="l71d20" points="55.75,45 55.75,53.5 64.25,53.5 64.25,45 75,45 75,55.75 66.5,55.75 66.5,64.25 75,64.25 75,75 64.25,75 64.25,66.5 55.75,66.5 55.75,75 45,75 45,64.25 53.5,64.25 53.5,55.75 45,55.75 45,45"/>
<polygon id="0x11f2e00" class="l71d20" points="55.75,85 55.75,93.5 64.25,93.5 64.25,85 75,85 75,95.75 66.5,95.75 66.5,104.25 75,104.25 75,115 64.25,115 64.25,106.5 55.75,106.5 55.75,115 45,115 45,104.25 53.5,104.25 53.5,95.75 45,95.75 45,85"/>
<polygon id="0x11f3050" class="l71d20" points="55.75,125 55.75,133.5 64.25,133.5 64.25,125 75,125 75,135.75 66.5,135.75 66.5,144.25 75,144.25 75,155 64.25,155 64.25,146.5 55.75,146.5 55.75,155 45,155 45,144.25 53.5,144.25 53.5,135.75 45,135.75 45,125"/>
<polygon id="0x11f3210" class="l71d20" points="55.75,165 55.75,173.5 64.25,173.5 64.25,165 75,165 75,175.75 66.5,175.75 66.5,184.25 75,184.25 75,195 64.25,195 64.25,186.5 55.75,186.5 55.75,195 45,195 45,184.25 53.5,184.25 53.5,175.75 45,175.75 45,165"/>
<polygon id="0x11f33d0" class="l71d20" points="55.75,205 55.75,213.5 64.25,213.5 64.25,205 75,205 75,215.75 66.5,215.75 66.5,224.25 75,224.25 75,235 64.25,235 64.25,226.5 55.75,226.5 55.75,235 45,235 45,224.25 53.5,224.25 53.5,215.75 45,215.75 45,205"/>
<polygon id="0x11f3590" class="l71d20" points="55.75,245 55.75,253.5 64.25,253.5 64.25,245 75,245 75,255.75 66.5,255.75 66.5,264.25 75,264.25 75,275 64.25,275 64.25,266.5 55.75,266.5 55.75,275 45,275 45,264.25 53.5,264.25 53.5,255.75 45,255.75 45,245"/>
<polygon id="0x11f3750" class="l71d20" points="55.75,285 55.75,293.5 64.25,293.5 64.25,285 75,285 75,295.75 66.5,295.75 66.5,304.25 75,304.25 75,315 64.25,315 64.25,306.5 55.75,306.5 55.75,315 45,315 45,304.25 53.5,304.25 53.5,295.75 45,295.75 45,285"/>
<polygon id="0x11f3910" class="l71d20" points="95.75,45 95.75,53.5 104.25,53.5 104.25,45 115,45 115,55.75 106.5,55.75 106.5,64.25 115,64.25 115,75 104.25,75 104.25,66.5 95.75,66.5 95.75,75 85,75 85,64.25 93.5,64.25 93.5,55.75 85,55.75 85,45"/>
<polygon id="0x11f3ad0" class="l71d20" points="95.75,245 95.75,253.5 104.25,253.5 104.25,245 115,245 115,255.75 106.5,255.75 106.5,264.25 115,264.25 115,275 104.25,275 104.25,266.5 95.75,266.5 95.75,275 85,275 85,264.25 93.5,264.25 93.5,255.75 85,255.75 85,245"/>
<polygon id="0x11f3c90" class="l71d20" points="135.75,45 135.75,53.5 144.25,53.5 144.25,45 155,45 155,55.75 146.5,55.75 146.5,64.25 155,64.25 155,75 144.25,75 144.25,66.5 135.75,66.5 135.75,75 125,75 125,64.25 133.5,64.25 133.5,55.75 125,55.75 125,45"/>
<polygon id="0x11f3e50" class="l71d20" points="135.75,245 135.75,253.5 144.25,253.5 144.25,245 155,245 155,255.75 146.5,255.75 146.5,264.25 155,264.25 155,275 144.25,275 144.25,266.5 135.75,266.5 135.75,275 125,275 125,264.25 133.5,264.25 133.5,255.75 125,255.75 125,245"/>
<polygon id="0x11f4010" class="l71d20" points="175.75,45 175.75,53.5 184.25,53.5 184.25,45 195,45 195,55.75 186.5,55.75 186.5,64.25 195,64.25 195,75 184.25,75 184.25,66.5 175.75,66.5 175.75,75 165,75 165,64.25 173.5,64.25 173.5,55.75 165,55.75 165,45"/>
<polygon id="0x11f41d0" class="l71d20" points="175.75,245 175.75,253.5 184.25,253.5 184.25,245 195,245 195,255.75 186.5,255.75 186.5,264.25 195,264.25 195,275 184.25,275 184.25,266.5 175.75,266.5 175.75,275 165,275 165,264.25 173.5,264.25 173.5,255.75 165,255.75 165,245"/>
<polygon id="0x11f4390" class="l71d20" points="215.75,45 215.75,53.5 224.25,53.5 224.25,45 235,45 235,55.75 226.5,55.75 226.5,64.25 235,64.25 235,75 224.25,75 224.25,66.5 215.75,66.5 215.75,75 205,75 205,64.25 213.5,64.25 213.5,55.75 205,55.75 205,45"/>
<polygon id="0x11f4550" class="l71d20" points="215.75,245 215.75,253.5 224.25,253.5 224.25,245 235,245 235,255.75 226.5,255.75 226.5,264.25 235,264.25 235,275 224.25,275 224.25,266.5 215.75,266.5 215.75,275 205,275 205,264.25 213.5,264.25 213.5,255.75 205,255.75 205,245"/>
<polygon id="0x11f4710" class="l71d20" points="255.75,5 255.75,13.5 264.25,13.5 264.25,5 275,5 275,15.75 266.5,15.75 266.5,24.25 275,24.25 275,35 264.25,35 264.25,26.5 255.75,26.5 255.75,35 245,35 245,24.25 253.5,24.25 253.5,15.75 245,15.75 245,5"/>
<polygon id="0x11f48d0" class="l71d20" points="255.75,45 255.75,53.5 264.25,53.5 264.25,45 275,45 275,55.75 266.5,55.75 266.5,64.25 275,64.25 275,75 264.25,75 264.25,66.5 255.75,66.5 255.75,75 245,75 245,64.25 253.5,64.25 253.5,55.75 245,55.75 245,45"/>
<polygon id="0x11f4a90" class="l71d20" points="255.75,85 255.75,93.5 264.25,93.5 264.25,85 275,85 275,95.75 266.5,95.75 266.5,104.25 275,104.25 275,115 264.25,115 264.25,106.5 255.75,106.5 255.75,115 245,115 245,104.25 253.5,104.25 253.5,95.75 245,95.75 245,85"/>
<polygon id="0x11f4c50" class="l71d20" points="255.75,125 255.75,133.5 264.25,133.5 264.25,125 275,125 275,135.75 266.5,135.75 266.5,144.25 275,144.25 275,155 264.25,155 264.25,146.5 255.75,146.5 255.75,155 245,155 245,144.25 253.5,144.25 253.5,135.75 245,135.75 245,125"/>
<polygon id="0x11f4e10" class="l71d20" points="255.75,165 255.75,173.5 264.25,173.5 264.25,165 275,165 275,175.75 266.5,175.75 266.5,184.25 275,184.25 275,195 264.25,195 264.25,186.5 255.75,186.5 255.75,195 245,195 245,184.25 253.5,184.25 253.5,175.75 245,175.75 245,165"/>
<polygon id="0x11f4fd0" class="l71d20" points="255.75,205 255.75,213.5 264.25,213.5 264.25,205 275,205 275,215.75 266.5,215.75 266.5,224.25 275,224.25 275,235 264.25,235 264.25,226.5 255.75,226.5 255.75,235 245,235 245,224.25 253.5,224.25 253.5,215.75 245,215.75 245,205"/>
<polygon id="0x11f5190" class="l71d20" points="255.75,245 255.75,253.5 264.25,253.5 264.25,245 275,245 275,255.75 266.5,255.75 266.5,264.25 275,264.25 275,275 264.25,275 264.25,266.5 255.75,266.5 255.75,275 245,275 245,264.25 253.5,264.25 253.5,255.75 245,255.75 245,245"/>
<polygon id="0x11f5350" class="l71d20" points="255.75,285 255.75,293.5 264.25,293.5 264.25,285 275,285 275,295.75 266.5,295.75 266.5,304.25 275,304.25 275,315 264.25,315 264.25,306.5 255.75,306.5 255.75,315 245,315 245,304.25 253.5,304.25 253.5,295.75 245,295.75 245,285"/>
<polygon id="0x11f5510" class="l71d20" points="295.75,5 295.75,13.5 304.25,13.5 304.25,5 315,5 315,15.75 306.5,15.75 306.5,24.25 315,24.25 315,35 304.25,35 304.25,26.5 295.75,26.5 295.75,35 285,35 285,24.25 293.5,24.25 293.5,15.75 285,15.75 285,5"/>
<polygon id="0x11f56d0" class="l71d20" points="295.75,45 295.75,53.5 304.25,53.5 304.25,45 315,45 315,55.75 306.5,55.75 306.5,64.25 315,64.25 315,75 304.25,75 304.25,66.5 295.75,66.5 295.75,75 285,75 285,64.25 293.5,64.25 293.5,55.75 285,55.75 285,45"/>
<polygon id="0x11f5890" class="l71d20" points="295.75,85 295.75,93.5 304.25,93.5 304.25,85 315,85 315,95.75 306.5,95.75 306.5,104.25 315,104.25 315,115 304.25,115 304.25,106.5 295.75,106.5 295.75,115 285,115 285,104.25 293.5,104.25 293.5,95.75 285,95.75 285,85"/>
<polygon id="0x11f5c60" class="l71d20" points="295.75,205 295.75,213.5 304.25,213.5 304.25,205 315,205 315,215.75 306.5,215.75 306.5,224.25 315,224.25 315,235 304.25,235 304.25,226.5 295.75,226.5 295.75,235 285,235 285,224.25 293.5,224.25 293.5,215.75 285,215.75 285,205"/>
<polygon id="0x11f5e20" class="l71d20" points="295.75,245 295.75,253.5 304.25,253.5 304.25,245 315,245 315,255.75 306.5,255.75 306.5,264.25 315,264.25 315,275 304.25,275 304.25,266.5 295.75,266.5 295.75,275 285,275 285,264.25 293.5,264.25 293.5,255.75 285,255.75 285,245"/>
<polygon id="0x11f5fe0" class="l71d20" points="295.75,285 295.75,293.5 304.25,293.5 304.25,285 315,285 315,295.75 306.5,295.75 306.5,304.25 315,304.25 315,315 304.25,315 304.25,306.5 295.75,306.5 295.75,315 285,315 285,304.25 293.5,304.25 293.5,295.75 285,295.75 285,285"/>
<polygon id="0x11f61a0" class="l71d20" points="15.75,365 15.75,373.5 24.25,373.5 24.25,365 35,365 35,375.75 26.5,375.75 26.5,384.25 35,384.25 35,395 24.25,395 24.25,386.5 15.75,386.5 15.75,395 5,395 5,384.25 13.5,384.25 13.5,375.75 5,375.75 5,365"/>
<polygon id="0x11f6360" class="l71d20" points="15.75,405 15.75,413.5 24.25,413.5 24.25,405 35,405 35,415.75 26.5,415.75 26.5,424.25 35,424.25 35,435 24.25,435 24.25,426.5 15.75,426.5 15.75,435 5,435 5,424.25 13.5,424.25 13.5,415.75 5,415.75 5,405"/>
<polygon id="0x11f6520" class="l71d20" points="15.75,445 15.75,453.5 24.25,453.5 24.25,445 35,445 35,455.75 26.5,455.75 26.5,464.25 35,464.25 35,475 24.25,475 24.25,466.5 15.75,466.5 15.75,475 5,475 5,464.25 13.5,464.25 13.5,455.75 5,455.75 5,445"/>
<polygon id="0x11f66e0" class="l71d20" points="15.75,565 15.75,573.5 24.25,573.5 24.25,565 35,565 35,575.75 26.5,575.75 26.5,584.25 35,584.25 35,595 24.25,595 24.25,586.5 15.75,586.5 15.75,595 5,595 5,584.25 13.5,584.25 13.5,575.75 5,575.75 5,565"/>
<polygon id="0x11f68a0" class="l71d20" points="15.75,605 15.75,613.5 24.25,613.5 24.25,605 35,605 35,615.75 26.5,615.75 26.5,624.25 35,624.25 35,635 24.25,635 24.25,626.5 15.75,626.5 15.75,635 5,635 5,624.25 13.5,624.25 13.5,615.75 5,615.75 5,605"/>
<polygon id="0x11f6a60" class="l71d20" points="15.75,645 15.75,653.5 24.25,653.5 24.25,645 35,645 35,655.75 26.5,655.75 26.5,664.25 35,664.25 35,675 24.25,675 24.25,666.5 15.75,666.5 15.75,675 5,675 5,664.25 13.5,664.25 13.5,655.75 5,655.75 5,645"/>
<polygon id="0x11f6c20" class="l71d20" points="55.75,365 55.75,373.5 64.25,373.5 64.25,365 75,365 75,375.75 66.5,375.75 66.5,384.25 75,384.25 75,395 64.25,395 64.25,386.5 55.75,386.5 55.75,395 45,395 45,384.25 53.5,384.25 53.5,375.75 45,375.75 45,365"/>
<polygon id="0x11f6de0" class="l71d20" points="55.75,445 55.75,453.5 64.25,453.5 64.25,445 75,445 75,455.75 66.5,455.75 66.5,464.25 75,464.25 75,475 64.25,475 64.25,466.5 55.75,466.5 55.75,475 45,475 45,464.25 53.5,464.25 53.5,455.75 45,455.75 45,445"/>
<polygon id="0x11f6fa0" class="l71d20" points="55.75,485 55.75,493.5 64.25,493.5 64.25,485 75,485 75,495.75 66.5,495.75 66.5,504.25 75,504.25 75,515 64.25,515 64.25,506.5 55.75,506.5 55.75,515 45,515 45,504.25 53.5,504.25 53.5,495.75 45,495.75 45,485"/>
<polygon id="0x11f7160" class="l71d20" points="55.75,525 55.75,533.5 64.25,533.5 64.25,525 75,525 75,535.75 66.5,535.75 66.5,544.25 75,544.25 75,555 64.25,555 64.25,546.5 55.75,546.5 55.75,555 45,555 45,544.25 53.5,544.25 53.5,535.75 45,535.75 45,525"/>
<polygon id="0x11f7320" class="l71d20" points="55.75,565 55.75,573.5 64.25,573.5 64.25,565 75,565 75,575.75 66.5,575.75 66.5,584.25 75,584.25 75,595 64.25,595 64.25,586.5 55.75,586.5 55.75,595 45,595 45,584.25 53.5,584.25 53.5,575.75 45,575.75 45,565"/>
<polygon id="0x11f74e0" class="l71d20" points="55.75,645 55.75,653.5 64.25,653.5 64.25,645 75,645 75,655.75 66.5,655.75 66.5,664.25 75,664.25 75,675 64.25,675 64.25,666.5 55.75,666.5 55.75,675 45,675 45,664.25 53.5,664.25 53.5,655.75 45,655.75 45,645"/>
<polygon id="0x11f76a0" class="l71d20" points="95.75,365 95.75,373.5 104.25,373.5 104.25,365 115,365 115,375.75 106.5,375.75 106.5,384.25 115,384.25 115,395 104.25,395 104.25,386.5 95.75,386.5 95.75,395 85,395 85,384.25 93.5,384.25 93.5,375.75 85,375.75 85,365"/>
<polygon id="0x11f7860" class="l71d20" points="95.75,645 95.75,653.5 104.25,653.5 104.25,645 115,645 115,655.75 106.5,655.75 106.5,664.25 115,664.25 115,675 104.25,675 104.25,666.5 95.75,666.5 95.75,675 85,675 85,664.25 93.5,664.25 93.5,655.75 85,655.75 85,645"/>
<polygon id="0x11f7a20" class="l71d20" points="135.75,365 135.75,373.5 144.25,373.5 144.25,365 155,365 155,375.75 146.5,375.75 146.5,384.25 155,384.25 155,395 144.25,395 144.25,386.5 135.75,386.5 135.75,395 125,395 125,384.25 133.5,384.25 133.5,375.75 125,375.75 125,365"/>
<polygon id="0x11f7be0" class="l71d20" points="135.75,405 135.75,413.5 144.25,413.5 144.25,405 155,405 155,415.75 146.5,415.75 146.5,424.25 155,424.25 155,435 144.25,435 144.25,426.5 135.75,426.5 135.75,435 125,435 125,424.25 133.5,424.25 133.5,415.75 125,415.75 125,405"/>
<polygon id="0x11f7da0" class="l71d20" points="135.75,445 135.75,453.5 144.25,453.5 144.25,445 155,445 155,455.75 146.5,455.75 146.5,464.25 155,464.25 155,475 144.25,475 144.25,466.5 135.75,466.5 135.75,475 125,475 125,464.25 133.5,464.25 133.5,455.75 125,455.75 125,445"/>
<polygon id="0x11f7f60" class="l71d20" points="135.75,565 135.75,573.5 144.25,573.5 144.25,565 155,565 155,575.75 146.5,575.75 146.5,584.25 155,584.25 155,595 144.25,595 144.25,586.5 135.75,586.5 135.75,595 125,595 125,584.25 133.5,584.25 133.5,575.75 125,575.75 125,565"/>
<polygon id="0x11f8120" class="l71d20" points="135.75,605 135.75,613.5 144.25,613.5 144.25,605 155,605 155,615.75 146.5,615.75 146.5,624.25 155,624.25 155,635 144.25,635 144.25,626.5 135.75,626.5 135.75,635 125,635 125,624.25 133.5,624.25 133.5,615.75 125,615.75 125,605"/>
<polygon id="0x11f82e0" class="l71d20" points="135.75,645 135.75,653.5 144.25,653.5 144.25,645 155,645 155,655.75 146.5,655.75 146.5,664.25 155,664.25 155,675 144.25,675 144.25,666.5 135.75,666.5 135.75,675 125,675 125,664.25 133.5,664.25 133.5,655.75 125,655.75 125,645"/>
<polygon id="0x11f84a0" class="l71d20" points="175.75,365 175.75,373.5 184.25,373.5 184.25,365 195,365 195,375.75 186.5,375.75 186.5,384.25 195,384.25 195,395 184.25,395 184.25,386.5 175.75,386.5 175.75,395 165,395 165,384.25 173.5,384.25 173.5,375.75 165,375.75 165,365"/>
<polygon id="0x11f8660" class="l71d20" points="175.75,405 175.75,413.5 184.25,413.5 184.25,405 195,405 195,415.75 186.5,415.75 186.5,424.25 195,424.25 195,435 184.25,435 184.25,426.5 175.75,426.5 175.75,435 165,435 165,424.25 173.5,424.25 173.5,415.75 165,415.75 165,405"/>
<polygon id="0x11f8820" class="l71d20" points="175.75,445 175.75,453.5 184.25,453.5 184.25,445 195,445 195,455.75 186.5,455.75 186.5,464.25 195,464.25 195,475 184.25,475 184.25,466.5 175.75,466.5 175.75,475 165,475 165,464.25 173.5,464.25 173.5,455.75 165,455.75 165,445"/>
<polygon id="0x11f8890" class="l71d20" points="175.75,565 175.75,573.5 184.25,573.5 184.25,565 195,565 195,575.75 186.5,575.75 186.5,584.25 195,584.25 195,595 184.25,595 184.25,586.5 175.75,586.5 175.75,595 165,595 165,584.25 173.5,584.25 173.5,575.75 165,575.75 165,565"/>
<polygon id="0xffd8a0" class="l71d20" points="175.75,605 175.75,613.5 184.25,613.5 184.25,605 195,605 195,615.75 186.5,615.75 186.5,624.25 195,624.25 195,635 184.25,635 184.25,626.5 175.75,626.5 175.75,635 165,635 165,624.25 173.5,624.25 173.5,615.75 165,615.75 165,605"/>
<polygon id="0x1199690" class="l71d20" points="175.75,645 175.75,653.5 184.25,653.5 184.25,645 195,645 195,655.75 186.5,655.75 186.5,664.25 195,664.25 195,675 184.25,675 184.25,666.5 175.75,666.5 175.75,675 165,675 165,664.25 173.5,664.25 173.5,655.75 165,655.75 165,645"/>
<polygon id="0x1195400" class="l71d20" points="215.75,365 215.75,373.5 224.25,373.5 224.25,365 235,365 235,375.75 226.5,375.75 226.5,384.25 235,384.25 235,395 224.25,395 224.25,386.5 215.75,386.5 215.75,395 205,395 205,384.25 213.5,384.25 213.5,375.75 205,375.75 205,365"/>
<polygon id="0x11489c0" class="l71d20" points="215.75,645 215.75,653.5 224.25,653.5 224.25,645 235,645 235,655.75 226.5,655.75 226.5,664.25 235,664.25 235,675 224.25,675 224.25,666.5 215.75,666.5 215.75,675 205,675 205,664.25 213.5,664.25 213.5,655.75 205,655.75 205,645"/>
<polygon id="0x119ee30" class="l71d20" points="255.75,365 255.75,373.5 264.25,373.5 264.25,365 275,365 275,375.75 266.5,375.75 266.5,384.25 275,384.25 275,395 264.25,395 264.25,386.5 255.75,386.5 255.75,395 245,395 245,384.25 253.5,384.25 253.5,375.75 245,375.75 245,365"/>
<polygon id="0xf5d160" class="l71d20" points="255.75,445 255.75,453.5 264.25,453.5 264.25,445 275,445 275,455.75 266.5,455.75 266.5,464.25 275,464.25 275,475 264.25,475 264.25,466.5 255.75,466.5 255.75,475 245,475 245,464.25 253.5,464.25 253.5,455.75 245,455.75 245,445"/>
<polygon id="0x112cf80" class="l71d20" points="255.75,485 255.75,493.5 264.25,493.5 264.25,485 275,485 275,495.75 266.5,495.75 266.5,504.25 275,504.25 275,515 264.25,515 264.25,506.5 255.75,506.5 255.75,515 245,515 245,504.25 253.5,504.25 253.5,495.75 245,495.75 245,485"/>
<polygon id="0xfce0c0" class="l71d20" points="255.75,525 255.75,533.5 264.25,533.5 264.25,525 275,525 275,535.75 266.5,535.75 266.5,544.25 275,544.25 275,555 264.25,555 264.25,546.5 255.75,546.5 255.75,555 245,555 245,544.25 253.5,544.25 253.5,535.75 245,535.75 245,525"/>
<polygon id="0xfce130" class="l71d20" points="255.75,565 255.75,573.5 264.25,573.5 264.25,565 275,565 275,575.75 266.5,575.75 266.5,584.25 275,584.25 275,595 264.25,595 264.25,586.5 255.75,586.5 255.75,595 245,595 245,584.25 253.5,584.25 253.5,575.75 245,575.75 245,565"/>
<polygon id="0x100c290" class="l71d20" points="255.75,645 255.75,653.5 264.25,653.5 264.25,645 275,645 275,655.75 266.5,655.75 266.5,664.25 275,664.25 275,675 264.25,675 264.25,666.5 255.75,666.5 255.75,675 245,675 245,664.25 253.5,664.25 253.5,655.75 245,655.75 245,645"/>
<polygon id="0x100c300" class="l71d20" points="295.75,365 295.75,373.5 304.25,373.5 304.25,365 315,365 315,375.75 306.5,375.75 306.5,384.25 315,384.25 315,395 304.25,395 304.25,386.5 295.75,386.5 295.75,395 285,395 285,384.25 293.5,384.25 293.5,375.75 285,375.75 285,365"/>
<polygon id="0x1011b80" class="l71d20" points="295.75,405 295.75,413.5 304.25,413.5 304.25,405 315,405 315,415.75 306.5,415.75 306.5,424.25 315,424.25 315,435 304.25,435 304.25,426.5 295.75,426.5 295.75,435 285,435 285,424.25 293.5,424.25 293.5,415.75 285,415.75 285,405"/>
<polygon id="0x1011bf0" class="l71d20" points="295.75,445 295.75,453.5 304.25,453.5 304.25,445 315,445 315,455.75 306.5,455.75 306.5,464.25 315,464.25 315,475 304.25,475 304.25,466.5 295.75,466.5 295.75,475 285,475 285,464.25 293.5,464.25 293.5,455.75 285,455.75 285,445"/>
<polygon id="0x1035dc0" class="l71d20" points="295.75,565 295.75,573.5 304.25,573.5 304.25,565 315,565 315,575.75 306.5,575.75 306.5,584.25 315,584.25 315,595 304.25,595 304.25,586.5 295.75,586.5 295.75,595 285,595 285,584.25 293.5,584.25 293.5,575.75 285,575.75 285,565"/>
<polygon id="0x1035e30" class="l71d20" points="295.75,605 295.75,613.5 304.25,613.5 304.25,605 315,605 315,615.75 306.5,615.75 306.5,624.25 315,624.25 315,635 304.25,635 304.25,626.5 295.75,626.5 295.75,635 285,635 285,624.25 293.5,624.25 293.5,615.75 285,615.75 285,605"/>
<polygon id="0x1063330" class="l71d20" points="295.75,645 295.75,653.5 304.25,653.5 304.25,645 315,645 315,655.75 306.5,655.75 306.5,664.25 315,664.25 315,675 304.25,675 304.25,666.5 295.75,666.5 295.75,675 285,675 285,664.25 293.5,664.25 293.5,655.75 285,655.75 285,645"/>
<polygon id="0x10633a0" class="l71d20" points="375.75,45 375.75,53.5 384.25,53.5 384.25,45 395,45 395,55.75 386.5,55.75 386.5,64.25 395,64.25 395,75 384.25,75 384.25,66.5 375.75,66.5 375.75,75 365,75 365,64.25 373.5,64.25 373.5,55.75 365,55.75 365,45"/>
<polygon id="0x10f2370" class="l71d20" points="375.75,245 375.75,253.5 384.25,253.5 384.25,245 395,245 395,255.75 386.5,255.75 386.5,264.25 395,264.25 395,275 384.25,275 384.25,266.5 375.75,266.5 375.75,275 365,275 365,264.25 373.5,264.25 373.5,255.75 365,255.75 365,245"/>
<polygon id="0x10f23e0" class="l71d20" points="415.75,5 415.75,13.5 424.25,13.5 424.25,5 435,5 435,15.75 426.5,15.75 426.5,24.25 435,24.25 435,35 424.25,35 424.25,26.5 415.75,26.5 415.75,35 405,35 405,24.25 413.5,24.25 413.5,15.75 405,15.75 405,5"/>
<polygon id="0x111b3a0" class="l71d20" points="415.75,85 415.75,93.5 424.25,93.5 424.25,85 435,85 435,95.75 426.5,95.75 426.5,104.25 435,104.25 435,115 424.25,115 424.25,106.5 415.75,106.5 415.75,115 405,115 405,104.25 413.5,104.25 413.5,95.75 405,95.75 405,85"/>
<polygon id="0x111b410" class="l71d20" points="415.75,205 415.75,213.5 424.25,213.5 424.25,205 435,205 435,215.75 426.5,215.75 426.5,224.25 435,224.25 435,235 424.25,235 424.25,226.5 415.75,226.5 415.75,235 405,235 405,224.25 413.5,224.25 413.5,215.75 405,215.75 405,205"/>
<polygon id="0x11674b0" class="l71d20" points="415.75,285 415.75,293.5 424.25,293.5 424.25,285 435,285 435,295.75 426.5,295.75 426.5,304.25 435,304.25 435,315 424.25,315 424.25,306.5 415.75,306.5 415.75,315 405,315 405,304.25 413.5,304.25 413.5,295.75 405,295.75 405,285"/>
<polygon id="0x1167520" class="l71d20" points="455.75,5 455.75,13.5 464.25,13.5 464.25,5 475,5 475,15.75 466.5,15.75 466.5,24.25 475,24.25 475,35 464.25,35 464.25,26.5 455.75,26.5 455.75,35 445,35 445,24.25 453.5,24.25 453.5,15.75 445,15.75 445,5"/>
<polygon id="0x118d550" class="l71d20" points="455.75,45 455.75,53.5 464.25,53.5 464.25,45 475,45 475,55.75 466.5,55.75 466.5,64.25 475,64.25 475,75 464.25,75 464.25,66.5 455.75,66.5 455.75,75 445,75 445,64.25 453.5,64.25 453.5,55.75 445,55.75 445,45"/>
<polygon id="0x118d5c0" class="l71d20" points="455.75,125 455.75,133.5 464.25,133.5 464.25,125 475,125 475,135.75 466.5,135.75 466.5,144.25 475,144.25 475,155 464.25,155 464.25,146.5 455.75,146.5 455.75,155 445,155 445,144.25 453.5,144.25 453.5,135.75 445,135.75 445,125"/>
<polygon id="0x11d4020" class="l71d20" points="455.75,165 455.75,173.5 464.25,173.5 464.25,165 475,165 475,175.75 466.5,175.75 466.5,184.25 475,184.25 475,195 464.25,195 464.25,186.5 455.75,186.5 455.75,195 445,195 445,184.25 453.5,184.25 453.5,175.75 445,175.75 445,165"/>
<polygon id="0x11d4090" class="l71d20" points="455.75,245 455.75,253.5 464.25,253.5 464.25,245 475,245 475,255.75 466.5,255.75 466.5,264.25 475,264.25 475,275 464.25,275 464.25,266.5 455.75,266.5 455.75,275 445,275 445,264.25 453.5,264.25 453.5,255.75 445,255.75 445,245"/>
<polygon id="0x11f2300" class="l71d20" points="455.75,285 455.75,293.5 464.25,293.5 464.25,285 475,285 475,295.75 466.5,295.75 466.5,304.25 475,304.25 475,315 464.25,315 464.25,306.5 455.75,306.5 455.75,315 445,315 445,304.25 453.5,304.25 453.5,295.75 445,295.75 445,285"/>
<polygon id="0x11f2370" class="l71d20" points="495.75,85 495.75,93.5 504.25,93.5 504.25,85 515,85 515,95.75 506.5,95.75 506.5,104.25 515,104.25 515,115 504.25,115 504.25,106.5 495.75,106.5 495.75,115 485,115 485,104.25 493.5,104.25 493.5,95.75 485,95.75 485,85"/>
<polygon id="0x11f2650" class="l71d20" points="495.75,205 495.75,213.5 504.25,213.5 504.25,205 515,205 515,215.75 506.5,215.75 506.5,224.25 515,224.25 515,235 504.25,235 504.25,226.5 495.75,226.5 495.75,235 485,235 485,224.25 493.5,224.25 493.5,215.75 485,215.75 485,205"/>
<polygon id="0x11f26c0" class="l71d20" points="535.75,85 535.75,93.5 544.25,93.5 544.25,85 555,85 555,95.75 546.5,95.75 546.5,104.25 555,104.25 555,115 544.25,115 544.25,106.5 535.75,106.5 535.75,115 525,115 525,104.25 533.5,104.25 533.5,95.75 525,95.75 525,85"/>
<polygon id="0xfc5200" class="l71d20" points="535.75,205 535.75,213.5 544.25,213.5 544.25,205 555,205 555,215.75 546.5,215.75 546.5,224.25 555,224.25 555,235 544.25,235 544.25,226.5 535.75,226.5 535.75,235 525,235 525,224.25 533.5,224.25 533.5,215.75 525,215.75 525,205"/>
<polygon id="0x10accb0" class="l71d20" points="575.75,5 575.75,13.5 584.25,13.5 584.25,5 595,5 595,15.75 586.5,15.75 586.5,24.25 595,24.25 595,35 584.25,35 584.25,26.5 575.75,26.5 575.75,35 565,35 565,24.25 573.5,24.25 573.5,15.75 565,15.75 565,5"/>
<polygon id="0x10ffa00" class="l71d20" points="575.75,45 575.75,53.5 584.25,53.5 584.25,45 595,45 595,55.75 586.5,55.75 586.5,64.25 595,64.25 595,75 584.25,75 584.25,66.5 575.75,66.5 575.75,75 565,75 565,64.25 573.5,64.25 573.5,55.75 565,55.75 565,45"/>
<polygon id="0x1125e50" class="l71d20" points="575.75,125 575.75,133.5 584.25,133.5 584.25,125 595,125 595,135.75 586.5,135.75 586.5,144.25 595,144.25 595,155 584.25,155 584.25,146.5 575.75,146.5 575.75,155 565,155 565,144.25 573.5,144.25 573.5,135.75 565,135.75 565,125"/>
<polygon id="0x10574c0" class="l71d20" points="575.75,165 575.75,173.5 584.25,173.5 584.25,165 595,165 595,175.75 586.5,175.75 586.5,184.25 595,184.25 595,195 584.25,195 584.25,186.5 575.75,186.5 575.75,195 565,195 565,184.25 573.5,184.25 573.5,175.75 565,175.75 565,165"/>
<polygon id="0xf93950" class="l71d20" points="575.75,245 575.75,253.5 584.25,253.5 584.25,245 595,245 595,255.75 586.5,255.75 586.5,264.25 595,264.25 595,275 584.25,275 584.25,266.5 575.75,266.5 575.75,275 565,275 565,264.25 573.5,264.25 573.5,255.75 565,255.75 565,245"/>
<polygon id="0x1072b70" class="l71d20" points="575.75,285 575.75,293.5 584.25,293.5 584.25,285 595,285 595,295.75 586.5,295.75 586.5,304.25 595,304.25 595,315 584.25,315 584.25,306.5 575.75,306.5 575.75,315 565,315 565,304.25 573.5,304.25 573.5,295.75 565,295.75 565,285"/>
<polygon id="0x10d8ef0" class="l71d20" points="615.75,5 615.75,13.5 624.25,13.5 624.25,5 635,5 635,15.75 626.5,15.75 626.5,24.25 635,24.25 635,35 624.25,35 624.25,26.5 615.75,26.5 615.75,35 605,35 605,24.25 613.5,24.25 613.5,15.75 605,15.75 605,5"/>
<polygon id="0x11402d0" class="l71d20" points="615.75,85 615.75,93.5 624.25,93.5 624.25,85 635,85 635,95.75 626.5,95.75 626.5,104.25 635,104.25 635,115 624.25,115 624.25,106.5 615.75,106.5 615.75,115 605,115 605,104.25 613.5,104.25 613.5,95.75 605,95.75 605,85"/>
<polygon id="0x1147960" class="l71d20" points="615.75,205 615.75,213.5 624.25,213.5 624.25,205 635,205 635,215.75 626.5,215.75 626.5,224.25 635,224.25 635,235 624.25,235 624.25,226.5 615.75,226.5 615.75,235 605,235 605,224.25 613.5,224.25 613.5,215.75 605,215.75 605,205"/>
<polygon id="0x11f28b0" class="l71d20" points="615.75,285 615.75,293.5 624.25,293.5 624.25,285 635,285 635,295.75 626.5,295.75 626.5,304.25 635,304.25 635,315 624.25,315 624.25,306.5 615.75,306.5 615.75,315 605,315 605,304.25 613.5,304.25 613.5,295.75 605,295.75 605,285"/>
<polygon id="0xf90600" class="l71d20" points="655.75,45 655.75,53.5 664.25,53.5 664.25,45 675,45 675,55.75 666.5,55.75 666.5,64.25 675,64.25 675,75 664.25,75 664.25,66.5 655.75,66.5 655.75,75 645,75 645,64.25 653.5,64.25 653.5,55.75 645,55.75 645,45"/>
<polygon id="0xf91df0" class="l71d20" points="655.75,245 655.75,253.5 664.25,253.5 664.25,245 675,245 675,255.75 666.5,255.75 666.5,264.25 675,264.25 675,275 664.25,275 664.25,266.5 655.75,266.5 655.75,275 645,275 645,264.25 653.5,264.25 653.5,255.75 645,255.75 645,245"/>
<polygon id="0x1027f30" class="l71d20" points="375.75,365 375.75,373.5 384.25,373.5 384.25,365 395,365 395,375.75 386.5,375.75 386.5,384.25 395,384.25 395,395 384.25,395 384.25,386.5 375.75,386.5 375.75,395 365,395 365,384.25 373.5,384.25 373.5,375.75 365,375.75 365,365"/>
<polygon id="0x1036bb0" class="l71d20" points="375.75,405 375.75,413.5 384.25,413.5 384.25,405 395,405 395,415.75 386.5,415.75 386.5,424.25 395,424.25 395,435 384.25,435 384.25,426.5 375.75,426.5 375.75,435 365,435 365,424.25 373.5,424.25 373.5,415.75 365,415.75 365,405"/>
<polygon id="0x105c410" class="l71d20" points="375.75,445 375.75,453.5 384.25,453.5 384.25,445 395,445 395,455.75 386.5,455.75 386.5,464.25 395,464.25 395,475 384.25,475 384.25,466.5 375.75,466.5 375.75,475 365,475 365,464.25 373.5,464.25 373.5,455.75 365,455.75 365,445"/>
<polygon id="0x10ed5a0" class="l71d20" points="375.75,485 375.75,493.5 384.25,493.5 384.25,485 395,485 395,495.75 386.5,495.75 386.5,504.25 395,504.25 395,515 384.25,515 384.25,506.5 375.75,506.5 375.75,515 365,515 365,504.25 373.5,504.25 373.5,495.75 365,495.75 365,485"/>
<polygon id="0xfcd350" class="l71d20" points="375.75,525 375.75,533.5 384.25,533.5 384.25,525 395,525 395,535.75 386.5,535.75 386.5,544.25 395,544.25 395,555 384.25,555 384.25,546.5 375.75,546.5 375.75,555 365,555 365,544.25 373.5,544.25 373.5,535.75 365,535.75 365,525"/>
<polygon id="0x1044040" class="l71d20" points="375.75,565 375.75,573.5 384.25,573.5 384.25,565 395,565 395,575.75 386.5,575.75 386.5,584.25 395,584.25 395,595 384.25,595 384.25,586.5 375.75,586.5 375.75,595 365,595 365,584.25 373.5,584.25 373.5,575.75 365,575.75 365,565"/>
<polygon id="0x105dd90" class="l71d20" points="375.75,605 375.75,613.5 384.25,613.5 384.25,605 395,605 395,615.75 386.5,615.75 386.5,624.25 395,624.25 395,635 384.25,635 384.25,626.5 375.75,626.5 375.75,635 365,635 365,624.25 373.5,624.25 373.5,615.75 365,615.75 365,605"/>
<polygon id="0xf5d880" class="l71d20" points="375.75,645 375.75,653.5 384.25,653.5 384.25,645 395,645 395,655.75 386.5,655.75 386.5,664.25 395,664.25 395,675 384.25,675 384.25,666.5 375.75,666.5 375.75,675 365,675 365,664.25 373.5,664.25 373.5,655.75 365,655.75 365,645"/>
<polygon id="0x1184790" class="l71d20" points="415.75,365 415.75,373.5 424.25,373.5 424.25,365 435,365 435,375.75 426.5,375.75 426.5,384.25 435,384.25 435,395 424.25,395 424.25,386.5 415.75,386.5 415.75,395 405,395 405,384.25 413.5,384.25 413.5,375.75 405,375.75 405,365"/>
<polygon id="0x113d120" class="l71d20" points="415.75,405 415.75,413.5 424.25,413.5 424.25,405 435,405 435,415.75 426.5,415.75 426.5,424.25 435,424.25 435,435 424.25,435 424.25,426.5 415.75,426.5 415.75,435 405,435 405,424.25 413.5,424.25 413.5,415.75 405,415.75 405,405"/>
<polygon id="0x11dad00" class="l71d20" points="415.75,445 415.75,453.5 424.25,453.5 424.25,445 435,445 435,455.75 426.5,455.75 426.5,464.25 435,464.25 435,475 424.25,475 424.25,466.5 415.75,466.5 415.75,475 405,475 405,464.25 413.5,464.25 413.5,455.75 405,455.75 405,445"/>
<polygon id="0x11bf9d0" class="l71d20" points="415.75,565 415.75,573.5 424.25,573.5 424.25,565 435,565 435,575.75 426.5,575.75 426.5,584.25 435,584.25 435,595 424.25,595 424.25,586.5 415.75,586.5 415.75,595 405,595 405,584.25 413.5,584.25 413.5,575.75 405,575.75 405,565"/>
<polygon id="0xfa4900" class="l71d20" points="415.75,605 415.75,613.5 424.25,613.5 424.25,605 435,605 435,615.75 426.5,615.75 426.5,624.25 435,624.25 435,635 424.25,635 424.25,626.5 415.75,626.5 415.75,635 405,635 405,624.25 413.5,624.25 413.5,615.75 405,615.75 405,605"/>
<polygon id="0x100ea40" class="l71d20" points="415.75,645 415.75,653.5 424.25,653.5 424.25,645 435,645 435,655.75 426.5,655.75 426.5,664.25 435,664.25 435,675 424.25,675 424.25,666.5 415.75,666.5 415.75,675 405,675 405,664.25 413.5,664.25 413.5,655.75 405,655.75 405,645"/>
<polygon id="0x10d54c0" class="l71d20" points="455.75,365 455.75,373.5 464.25,373.5 464.25,365 475,365 475,375.75 466.5,375.75 466.5,384.25 475,384.25 475,395 464.25,395 464.25,386.5 455.75,386.5 455.75,395 445,395 445,384.25 453.5,384.25 453.5,375.75 445,375.75 445,365"/>
<polygon id="0x10dc060" class="l71d20" points="455.75,405 455.75,413.5 464.25,413.5 464.25,405 475,405 475,415.75 466.5,415.75 466.5,424.25 475,424.25 475,435 464.25,435 464.25,426.5 455.75,426.5 455.75,435 445,435 445,424.25 453.5,424.25 453.5,415.75 445,415.75 445,405"/>
<polygon id="0x1196370" class="l71d20" points="455.75,445 455.75,453.5 464.25,453.5 464.25,445 475,445 475,455.75 466.5,455.75 466.5,464.25 475,464.25 475,475 464.25,475 464.25,466.5 455.75,466.5 455.75,475 445,475 445,464.25 453.5,464.25 453.5,455.75 445,455.75 445,445"/>
<polygon id="0x1158c50" class="l71d20" points="455.75,485 455.75,493.5 464.25,493.5 464.25,485 475,485 475,495.75 466.5,495.75 466.5,504.25 475,504.25 475,515 464.25,515 464.25,506.5 455.75,506.5 455.75,515 445,515 445,504.25 453.5,504.25 453.5,495.75 445,495.75 445,485"/>
<polygon id="0x11f2410" class="l71d20" points="455.75,525 455.75,533.5 464.25,533.5 464.25,525 475,525 475,535.75 466.5,535.75 466.5,544.25 475,544.25 475,555 464.25,555 464.25,546.5 455.75,546.5 455.75,555 445,555 445,544.25 453.5,544.25 453.5,535.75 445,535.75 445,525"/>
<polygon id="0x11f2530" class="l71d20" points="455.75,565 455.75,573.5 464.25,573.5 464.25,565 475,565 475,575.75 466.5,575.75 466.5,584.25 475,584.25 475,595 464.25,595 464.25,586.5 455.75,586.5 455.75,595 445,595 445,584.25 453.5,584.25 453.5,575.75 445,575.75 445,565"/>
<polygon id="0x111e070" class="l71d20" points="455.75,605 455.75,613.5 464.25,613.5 464.25,605 475,605 475,615.75 466.5,615.75 466.5,624.25 475,624.25 475,635 464.25,635 464.25,626.5 455.75,626.5 455.75,635 445,635 445,624.25 453.5,624.25 453.5,615.75 445,615.75 445,605"/>
<polygon id="0x111e0e0" class="l71d20" points="455.75,645 455.75,653.5 464.25,653.5 464.25,645 475,645 475,655.75 466.5,655.75 466.5,664.25 475,664.25 475,675 464.25,675 464.25,666.5 455.75,666.5 455.75,675 445,675 445,664.25 453.5,664.25 453.5,655.75 445,655.75 445,645"/>
<polygon id="0x1120ae0" class="l71d20" points="495.75,365 495.75,373.5 504.25,373.5 504.25,365 515,365 515,375.75 506.5,375.75 506.5,384.25 515,384.25 515,395 504.25,395 504.25,386.5 495.75,386.5 495.75,395 485,395 485,384.25 493.5,384.25 493.5,375.75 485,375.75 485,365"/>
<polygon id="0x1120b50" class="l71d20" points="495.75,485 495.75,493.5 504.25,493.5 504.25,485 515,485 515,495.75 506.5,495.75 506.5,504.25 515,504.25 515,515 504.25,515 504.25,506.5 495.75,506.5 495.75,515 485,515 485,504.25 493.5,504.25 493.5,495.75 485,495.75 485,485"/>
<polygon id="0x11397d0" class="l71d20" points="495.75,525 495.75,533.5 504.25,533.5 504.25,525 515,525 515,535.75 506.5,535.75 506.5,544.25 515,544.25 515,555 504.25,555 504.25,546.5 495.75,546.5 495.75,555 485,555 485,544.25 493.5,544.25 493.5,535.75 485,535.75 485,525"/>
<polygon id="0x10d2310" class="l71d20" points="495.75,645 495.75,653.5 504.25,653.5 504.25,645 515,645 515,655.75 506.5,655.75 506.5,664.25 515,664.25 515,675 504.25,675 504.25,666.5 495.75,666.5 495.75,675 485,675 485,664.25 493.5,664.25 493.5,655.75 485,655.75 485,645"/>
<polygon id="0x11f2480" class="l71d20" points="535.75,365 535.75,373.5 544.25,373.5 544.25,365 555,365 555,375.75 546.5,375.75 546.5,384.25 555,384.25 555,395 544.25,395 544.25,386.5 535.75,386.5 535.75,395 525,395 525,384.25 533.5,384.25 533.5,375.75 525,375.75 525,365"/>
<polygon id="0x11963e0" class="l71d20" points="535.75,485 535.75,493.5 544.25,493.5 544.25,485 555,485 555,495.75 546.5,495.75 546.5,504.25 555,504.25 555,515 544.25,515 544.25,506.5 535.75,506.5 535.75,515 525,515 525,504.25 533.5,504.25 533.5,495.75 525,495.75 525,485"/>
<polygon id="0x10d5530" class="l71d20" points="535.75,525 535.75,533.5 544.25,533.5 544.25,525 555,525 555,535.75 546.5,535.75 546.5,544.25 555,544.25 555,555 544.25,555 544.25,546.5 535.75,546.5 535.75,555 525,555 525,544.25 533.5,544.25 533.5,535.75 525,535.75 525,525"/>
<polygon id="0xfa4970" class="l71d20" points="535.75,645 535.75,653.5 544.25,653.5 544.25,645 555,645 555,655.75 546.5,655.75 546.5,664.25 555,664.25 555,675 544.25,675 544.25,666.5 535.75,666.5 535.75,675 525,675 525,664.25 533.5,664.25 533.5,655.75 525,655.75 525,645"/>
<polygon id="0x112f950" class="l71d20" points="575.75,365 575.75,373.5 584.25,373.5 584.25,365 595,365 595,375.75 586.5,375.75 586.5,384.25 595,384.25 595,395 584.25,395 584.25,386.5 575.75,386.5 575.75,395 565,395 565,384.25 573.5,384.25 573.5,375.75 565,375.75 565,365"/>
<polygon id="0x1139840" class="l71d20" points="575.75,405 575.75,413.5 584.25,413.5 584.25,405 595,405 595,415.75 586.5,415.75 586.5,424.25 595,424.25 595,435 584.25,435 584.25,426.5 575.75,426.5 575.75,435 565,435 565,424.25 573.5,424.25 573.5,415.75 565,415.75 565,405"/>
<polygon id="0xfbc350" class="l71d20" points="575.75,445 575.75,453.5 584.25,453.5 584.25,445 595,445 595,455.75 586.5,455.75 586.5,464.25 595,464.25 595,475 584.25,475 584.25,466.5 575.75,466.5 575.75,475 565,475 565,464.25 573.5,464.25 573.5,455.75 565,455.75 565,445"/>
<polygon id="0x119ffe0" class="l71d20" points="575.75,485 575.75,493.5 584.25,493.5 584.25,485 595,485 595,495.75 586.5,495.75 586.5,504.25 595,504.25 595,515 584.25,515 584.25,506.5 575.75,506.5 575.75,515 565,515 565,504.25 573.5,504.25 573.5,495.75 565,495.75 565,485"/>
<polygon id="0x11a3410" class="l71d20" points="575.75,525 575.75,533.5 584.25,533.5 584.25,525 595,525 595,535.75 586.5,535.75 586.5,544.25 595,544.25 595,555 584.25,555 584.25,546.5 575.75,546.5 575.75,555 565,555 565,544.25 573.5,544.25 573.5,535.75 565,535.75 565,525"/>
<polygon id="0xfc8b70" class="l71d20" points="575.75,565 575.75,573.5 584.25,573.5 584.25,565 595,565 595,575.75 586.5,575.75 586.5,584.25 595,584.25 595,595 584.25,595 584.25,586.5 575.75,586.5 575.75,595 565,595 565,584.25 573.5,584.25 573.5,575.75 565,575.75 565,565"/>
<polygon id="0xe5a710" class="l71d20" points="575.75,605 575.75,613.5 584.25,613.5 584.25,605 595,605 595,615.75 586.5,615.75 586.5,624.25 595,624.25 595,635 584.25,635 584.25,626.5 575.75,626.5 575.75,635 565,635 565,624.25 573.5,624.25 573.5,615.75 565,615.75 565,605"/>
<polygon id="0x1040860" class="l71d20" points="575.75,645 575.75,653.5 584.25,653.5 584.25,645 595,645 595,655.75 586.5,655.75 586.5,664.25 595,664.25 595,675 584.25,675 584.25,666.5 575.75,666.5 575.75,675 565,675 565,664.25 573.5,664.25 573.5,655.75 565,655.75 565,645"/>
<polygon id="0x10408d0" class="l71d20" points="615.75,365 615.75,373.5 624.25,373.5 624.25,365 635,365 635,375.75 626.5,375.75 626.5,384.25 635,384.25 635,395 624.25,395 624.25,386.5 615.75,386.5 615.75,395 605,395 605,384.25 613.5,384.25 613.5,375.75 605,375.75 605,365"/>
<polygon id="0x10ce670" class="l71d20" points="615.75,405 615.75,413.5 624.25,413.5 624.25,405 635,405 635,415.75 626.5,415.75 626.5,424.25 635,424.25 635,435 624.25,435 624.25,426.5 615.75,426.5 615.75,435 605,435 605,424.25 613.5,424.25 613.5,415.75 605,415.75 605,405"/>
<polygon id="0x10ce6e0" class="l71d20" points="615.75,445 615.75,453.5 624.25,453.5 624.25,445 635,445 635,455.75 626.5,455.75 626.5,464.25 635,464.25 635,475 624.25,475 624.25,466.5 615.75,466.5 615.75,475 605,475 605,464.25 613.5,464.25 613.5,455.75 605,455.75 605,445"/>
<polygon id="0x11388b0" class="l71d20" points="615.75,565 615.75,573.5 624.25,573.5 624.25,565 635,565 635,575.75 626.5,575.75 626.5,584.25 635,584.25 635,595 624.25,595 624.25,586.5 615.75,586.5 615.75,595 605,595 605,584.25 613.5,584.25 613.5,575.75 605,575.75 605,565"/>
<polygon id="0x1138920" class="l71d20" points="615.75,605 615.75,613.5 624.25,613.5 624.25,605 635,605 635,615.75 626.5,615.75 626.5,624.25 635,624.25 635,635 624.25,635 624.25,626.5 615.75,626.5 615.75,635 605,635 605,624.25 613.5,624.25 613.5,615.75 605,615.75 605,605"/>
<polygon id="0x119e450" class="l71d20" points="615.75,645 615.75,653.5 624.25,653.5 624.25,645 635,645 635,655.75 626.5,655.75 626.5,664.25 635,664.25 635,675 624.25,675 624.25,666.5 615.75,666.5 615.75,675 605,675 605,664.25 613.5,664.25 613.5,655.75 605,655.75 605,645"/>
<polygon id="0x119e4c0" class="l71d20" points="655.75,365 655.75,373.5 664.25,373.5 664.25,365 675,365 675,375.75 666.5,375.75 666.5,384.25 675,384.25 675,395 664.25,395 664.25,386.5 655.75,386.5 655.75,395 645,395 645,384.25 653.5,384.25 653.5,375.75 645,375.75 645,365"/>
<polygon id="0x11d3730" class="l71d20" points="655.75,405 655.75,413.5 664.25,413.5 664.25,405 675,405 675,415.75 666.5,415.75 666.5,424.25 675,424.25 675,435 664.25,435 664.25,426.5 655.75,426.5 655.75,435 645,435 645,424.25 653.5,424.25 653.5,415.75 645,415.75 645,405"/>
<polygon id="0x11d37a0" class="l71d20" points="655.75,445 655.75,453.5 664.25,453.5 664.25,445 675,445 675,455.75 666.5,455.75 666.5,464.25 675,464.25 675,475 664.25,475 664.25,466.5 655.75,466.5 655.75,475 645,475 645,464.25 653.5,464.25 653.5,455.75 645,455.75 645,445"/>
<polygon id="0xefd8b0" class="l71d20" points="655.75,485 655.75,493.5 664.25,493.5 664.25,485 675,485 675,495.75 666.5,495.75 666.5,504.25 675,504.25 675,515 664.25,515 664.25,506.5 655.75,506.5 655.75,515 645,515 645,504.25 653.5,504.25 653.5,495.75 645,495.75 645,485"/>
<polygon id="0xefd920" class="l71d20" points="655.75,525 655.75,533.5 664.25,533.5 664.25,525 675,525 675,535.75 666.5,535.75 666.5,544.25 675,544.25 675,555 664.25,555 664.25,546.5 655.75,546.5 655.75,555 645,555 645,544.25 653.5,544.25 653.5,535.75 645,535.75 645,525"/>
<polygon id="0xf082e0" class="l71d20" points="655.75,565 655.75,573.5 664.25,573.5 664.25,565 675,565 675,575.75 666.5,575.75 666.5,584.25 675,584.25 675,595 664.25,595 664.25,586.5 655.75,586.5 655.75,595 645,595 645,584.25 653.5,584.25 653.5,575.75 645,575.75 645,565"/>
<polygon id="0xf08350" class="l71d20" points="655.75,605 655.75,613.5 664.25,613.5 664.25,605 675,605 675,615.75 666.5,615.75 666.5,624.25 675,624.25 675,635 664.25,635 664.25,626.5 655.75,626.5 655.75,635 645,635 645,624.25 653.5,624.25 653.5,615.75 645,615.75 645,605"/>
<polygon id="0x11f9c20" class="l71d20" points="655.75,645 655.75,653.5 664.25,653.5 664.25,645 675,645 675,655.75 666.5,655.75 666.5,664.25 675,664.25 675,675 664.25,675 664.25,666.5 655.75,666.5 655.75,675 645,675 645,664.25 653.5,664.25 653.5,655.75 645,655.75 645,645"/>
<polygon id="0x11f9c90" class="l71d20" points="775.75,85 775.75,93.5 784.25,93.5 784.25,85 795,85 795,95.75 786.5,95.75 786.5,104.25 795,104.25 795,115 784.25,115 784.25,106.5 775.75,106.5 775.75,115 765,115 765,104.25 773.5,104.25 773.5,95.75 765,95.75 765,85"/>
<polygon id="0xf9fed0" class="l71d20" points="775.75,205 775.75,213.5 784.25,213.5 784.25,205 795,205 795,215.75 786.5,215.75 786.5,224.25 795,224.25 795,235 784.25,235 784.25,226.5 775.75,226.5 775.75,235 765,235 765,224.25 773.5,224.25 773.5,215.75 765,215.75 765,205"/>
<polygon id="0xf9ff40" class="l71d20" points="815.75,45 815.75,53.5 824.25,53.5 824.25,45 835,45 835,55.75 826.5,55.75 826.5,64.25 835,64.25 835,75 824.25,75 824.25,66.5 815.75,66.5 815.75,75 805,75 805,64.25 813.5,64.25 813.5,55.75 805,55.75 805,45"/>
<polygon id="0xf99b10" class="l71d20" points="815.75,85 815.75,93.5 824.25,93.5 824.25,85 835,85 835,95.75 826.5,95.75 826.5,104.25 835,104.25 835,115 824.25,115 824.25,106.5 815.75,106.5 815.75,115 805,115 805,104.25 813.5,104.25 813.5,95.75 805,95.75 805,85"/>
<polygon id="0xf99b80" class="l71d20" points="815.75,205 815.75,213.5 824.25,213.5 824.25,205 835,205 835,215.75 826.5,215.75 826.5,224.25 835,224.25 835,235 824.25,235 824.25,226.5 815.75,226.5 815.75,235 805,235 805,224.25 813.5,224.25 813.5,215.75 805,215.75 805,205"/>
<polygon id="0xfbe500" class="l71d20" points="815.75,245 815.75,253.5 824.25,253.5 824.25,245 835,245 835,255.75 826.5,255.75 826.5,264.25 835,264.25 835,275 824.25,275 824.25,266.5 815.75,266.5 815.75,275 805,275 805,264.25 813.5,264.25 813.5,255.75 805,255.75 805,245"/>
<polygon id="0xfbe570" class="l71d20" points="935.75,45 935.75,53.5 944.25,53.5 944.25,45 955,45 955,55.75 946.5,55.75 946.5,64.25 955,64.25 955,75 944.25,75 944.25,66.5 935.75,66.5 935.75,75 925,75 925,64.25 933.5,64.25 933.5,55.75 925,55.75 925,45"/>
<polygon id="0xfd6580" class="l71d20" points="935.75,85 935.75,93.5 944.25,93.5 944.25,85 955,85 955,95.75 946.5,95.75 946.5,104.25 955,104.25 955,115 944.25,115 944.25,106.5 935.75,106.5 935.75,115 925,115 925,104.25 933.5,104.25 933.5,95.75 925,95.75 925,85"/>
<polygon id="0xfd65f0" class="l71d20" points="935.75,205 935.75,213.5 944.25,213.5 944.25,205 955,205 955,215.75 946.5,215.75 946.5,224.25 955,224.25 955,235 944.25,235 944.25,226.5 935.75,226.5 935.75,235 925,235 925,224.25 933.5,224.25 933.5,215.75 925,215.75 925,205"/>
<polygon id="0xff7410" class="l71d20" points="935.75,245 935.75,253.5 944.25,253.5 944.25,245 955,245 955,255.75 946.5,255.75 946.5,264.25 955,264.25 955,275 944.25,275 944.25,266.5 935.75,266.5 935.75,275 925,275 925,264.25 933.5,264.25 933.5,255.75 925,255.75 925,245"/>
<polygon id="0xff7480" class="l71d20" points="975.75,85 975.75,93.5 984.25,93.5 984.25,85 995,85 995,95.75 986.5,95.75 986.5,104.25 995,104.25 995,115 984.25,115 984.25,106.5 975.75,106.5 975.75,115 965,115 965,104.25 973.5,104.25 973.5,95.75 965,95.75 965,85"/>
<polygon id="0xfff4d0" class="l71d20" points="975.75,205 975.75,213.5 984.25,213.5 984.25,205 995,205 995,215.75 986.5,215.75 986.5,224.25 995,224.25 995,235 984.25,235 984.25,226.5 975.75,226.5 975.75,235 965,235 965,224.25 973.5,224.25 973.5,215.75 965,215.75 965,205"/>
<polygon id="0xfff540" class="l71d20" points="735.75,365 735.75,373.5 744.25,373.5 744.25,365 755,365 755,375.75 746.5,375.75 746.5,384.25 755,384.25 755,395 744.25,395 744.25,386.5 735.75,386.5 735.75,395 725,395 725,384.25 733.5,384.25 733.5,375.75 725,375.75 725,365"/>
<polygon id="0x1064b60" class="l71d20" points="735.75,485 735.75,493.5 744.25,493.5 744.25,485 755,485 755,495.75 746.5,495.75 746.5,504.25 755,504.25 755,515 744.25,515 744.25,506.5 735.75,506.5 735.75,515 725,515 725,504.25 733.5,504.25 733.5,495.75 725,495.75 725,485"/>
<polygon id="0x1064bd0" class="l71d20" points="735.75,525 735.75,533.5 744.25,533.5 744.25,525 755,525 755,535.75 746.5,535.75 746.5,544.25 755,544.25 755,555 744.25,555 744.25,546.5 735.75,546.5 735.75,555 725,555 725,544.25 733.5,544.25 733.5,535.75 725,535.75 725,525"/>
<polygon id="0x1052ec0" class="l71d20" points="735.75,645 735.75,653.5 744.25,653.5 744.25,645 755,645 755,655.75 746.5,655.75 746.5,664.25 755,664.25 755,675 744.25,675 744.25,666.5 735.75,666.5 735.75,675 725,675 725,664.25 733.5,664.25 733.5,655.75 725,655.75 725,645"/>
<polygon id="0x1052f30" class="l71d20" points="775.75,365 775.75,373.5 784.25,373.5 784.25,365 795,365 795,375.75 786.5,375.75 786.5,384.25 795,384.25 795,395 784.25,395 784.25,386.5 775.75,386.5 775.75,395 765,395 765,384.25 773.5,384.25 773.5,375.75 765,375.75 765,365"/>
<polygon id="0x103e540" class="l71d20" points="775.75,405 775.75,413.5 784.25,413.5 784.25,405 795,405 795,415.75 786.5,415.75 786.5,424.25 795,424.25 795,435 784.25,435 784.25,426.5 775.75,426.5 775.75,435 765,435 765,424.25 773.5,424.25 773.5,415.75 765,415.75 765,405"/>
<polygon id="0x103e5b0" class="l71d20" points="775.75,485 775.75,493.5 784.25,493.5 784.25,485 795,485 795,495.75 786.5,495.75 786.5,504.25 795,504.25 795,515 784.25,515 784.25,506.5 775.75,506.5 775.75,515 765,515 765,504.25 773.5,504.25 773.5,495.75 765,495.75 765,485"/>
<polygon id="0x110dc60" class="l71d20" points="775.75,525 775.75,533.5 784.25,533.5 784.25,525 795,525 795,535.75 786.5,535.75 786.5,544.25 795,544.25 795,555 784.25,555 784.25,546.5 775.75,546.5 775.75,555 765,555 765,544.25 773.5,544.25 773.5,535.75 765,535.75 765,525"/>
<polygon id="0x110dcd0" class="l71d20" points="775.75,605 775.75,613.5 784.25,613.5 784.25,605 795,605 795,615.75 786.5,615.75 786.5,624.25 795,624.25 795,635 784.25,635 784.25,626.5 775.75,626.5 775.75,635 765,635 765,624.25 773.5,624.25 773.5,615.75 765,615.75 765,605"/>
<polygon id="0x1180720" class="l71d20" points="775.75,645 775.75,653.5 784.25,653.5 784.25,645 795,645 795,655.75 786.5,655.75 786.5,664.25 795,664.25 795,675 784.25,675 784.25,666.5 775.75,666.5 775.75,675 765,675 765,664.25 773.5,664.25 773.5,655.75 765,655.75 765,645"/>
<polygon id="0x1180790" class="l71d20" points="815.75,365 815.75,373.5 824.25,373.5 824.25,365 835,365 835,375.75 826.5,375.75 826.5,384.25 835,384.25 835,395 824.25,395 824.25,386.5 815.75,386.5 815.75,395 805,395 805,384.25 813.5,384.25 813.5,375.75 805,375.75 805,365"/>
<polygon id="0x113fa90" class="l71d20" points="815.75,405 815.75,413.5 824.25,413.5 824.25,405 835,405 835,415.75 826.5,415.75 826.5,424.25 835,424.25 835,435 824.25,435 824.25,426.5 815.75,426.5 815.75,435 805,435 805,424.25 813.5,424.25 813.5,415.75 805,415.75 805,405"/>
<polygon id="0x113fb00" class="l71d20" points="815.75,445 815.75,453.5 824.25,453.5 824.25,445 835,445 835,455.75 826.5,455.75 826.5,464.25 835,464.25 835,475 824.25,475 824.25,466.5 815.75,466.5 815.75,475 805,475 805,464.25 813.5,464.25 813.5,455.75 805,455.75 805,445"/>
<polygon id="0x119afe0" class="l71d20" points="815.75,565 815.75,573.5 824.25,573.5 824.25,565 835,565 835,575.75 826.5,575.75 826.5,584.25 835,584.25 835,595 824.25,595 824.25,586.5 815.75,586.5 815.75,595 805,595 805,584.25 813.5,584.25 813.5,575.75 805,575.75 805,565"/>
<polygon id="0x119b050" class="l71d20" points="815.75,605 815.75,613.5 824.25,613.5 824.25,605 835,605 835,615.75 826.5,615.75 826.5,624.25 835,624.25 835,635 824.25,635 824.25,626.5 815.75,626.5 815.75,635 805,635 805,624.25 813.5,624.25 813.5,615.75 805,615.75 805,605"/>
<polygon id="0x11ac780" class="l71d20" points="815.75,645 815.75,653.5 824.25,653.5 824.25,645 835,645 835,655.75 826.5,655.75 826.5,664.25 835,664.25 835,675 824.25,675 824.25,666.5 815.75,666.5 815.75,675 805,675 805,664.25 813.5,664.25 813.5,655.75 805,655.75 805,645"/>
<polygon id="0x11ac7f0" class="l71d20" points="855.75,365 855.75,373.5 864.25,373.5 864.25,365 875,365 875,375.75 866.5,375.75 866.5,384.25 875,384.25 875,395 864.25,395 864.25,386.5 855.75,386.5 855.75,395 845,395 845,384.25 853.5,384.25 853.5,375.75 845,375.75 845,365"/>
<polygon id="0x11bc410" class="l71d20" points="855.75,405 855.75,413.5 864.25,413.5 864.25,405 875,405 875,415.75 866.5,415.75 866.5,424.25 875,424.25 875,435 864.25,435 864.25,426.5 855.75,426.5 855.75,435 845,435 845,424.25 853.5,424.25 853.5,415.75 845,415.75 845,405"/>
<polygon id="0x11bc480" class="l71d20" points="855.75,445 855.75,453.5 864.25,453.5 864.25,445 875,445 875,455.75 866.5,455.75 866.5,464.25 875,464.25 875,475 864.25,475 864.25,466.5 855.75,466.5 855.75,475 845,475 845,464.25 853.5,464.25 853.5,455.75 845,455.75 845,445"/>
<polygon id="0xfa7870" class="l71d20" points="855.75,565 855.75,573.5 864.25,573.5 864.25,565 875,565 875,575.75 866.5,575.75 866.5,584.25 875,584.25 875,595 864.25,595 864.25,586.5 855.75,586.5 855.75,595 845,595 845,584.25 853.5,584.25 853.5,575.75 845,575.75 845,565"/>
<polygon id="0xfa78e0" class="l71d20" points="855.75,605 855.75,613.5 864.25,613.5 864.25,605 875,605 875,615.75 866.5,615.75 866.5,624.25 875,624.25 875,635 864.25,635 864.25,626.5 855.75,626.5 855.75,635 845,635 845,624.25 853.5,624.25 853.5,615.75 845,615.75 845,605"/>
<polygon id="0xfc9380" class="l71d20" points="855.75,645 855.75,653.5 864.25,653.5 864.25,645 875,645 875,655.75 866.5,655.75 866.5,664.25 875,664.25 875,675 864.25,675 864.25,666.5 855.75,666.5 855.75,675 845,675 845,664.25 853.5,664.25 853.5,655.75 845,655.75 845,645"/>
<polygon id="0xfc93f0" class="l71d20" points="895.75,365 895.75,373.5 904.25,373.5 904.25,365 915,365 915,375.75 906.5,375.75 906.5,384.25 915,384.25 915,395 904.25,395 904.25,386.5 895.75,386.5 895.75,395 885,395 885,384.25 893.5,384.25 893.5,375.75 885,375.75 885,365"/>
<polygon id="0x10539c0" class="l71d20" points="895.75,405 895.75,413.5 904.25,413.5 904.25,405 915,405 915,415.75 906.5,415.75 906.5,424.25 915,424.25 915,435 904.25,435 904.25,426.5 895.75,426.5 895.75,435 885,435 885,424.25 893.5,424.25 893.5,415.75 885,415.75 885,405"/>
<polygon id="0x1053a30" class="l71d20" points="895.75,445 895.75,453.5 904.25,453.5 904.25,445 915,445 915,455.75 906.5,455.75 906.5,464.25 915,464.25 915,475 904.25,475 904.25,466.5 895.75,466.5 895.75,475 885,475 885,464.25 893.5,464.25 893.5,455.75 885,455.75 885,445"/>
<polygon id="0x11d0460" class="l71d20" points="895.75,565 895.75,573.5 904.25,573.5 904.25,565 915,565 915,575.75 906.5,575.75 906.5,584.25 915,584.25 915,595 904.25,595 904.25,586.5 895.75,586.5 895.75,595 885,595 885,584.25 893.5,584.25 893.5,575.75 885,575.75 885,565"/>
<polygon id="0x11d04d0" class="l71d20" points="895.75,605 895.75,613.5 904.25,613.5 904.25,605 915,605 915,615.75 906.5,615.75 906.5,624.25 915,624.25 915,635 904.25,635 904.25,626.5 895.75,626.5 895.75,635 885,635 885,624.25 893.5,624.25 893.5,615.75 885,615.75 885,605"/>
<polygon id="0xfbfc40" class="l71d20" points="895.75,645 895.75,653.5 904.25,653.5 904.25,645 915,645 915,655.75 906.5,655.75 906.5,664.25 915,664.25 915,675 904.25,675 904.25,666.5 895.75,666.5 895.75,675 885,675 885,664.25 893.5,664.25 893.5,655.75 885,655.75 885,645"/>
<polygon id="0xfbfcb0" class="l71d20" points="935.75,365 935.75,373.5 944.25,373.5 944.25,365 955,365 955,375.75 946.5,375.75 946.5,384.25 955,384.25 955,395 944.25,395 944.25,386.5 935.75,386.5 935.75,395 925,395 925,384.25 933.5,384.25 933.5,375.75 925,375.75 925,365"/>
<polygon id="0x10692c0" class="l71d20" points="935.75,405 935.75,413.5 944.25,413.5 944.25,405 955,405 955,415.75 946.5,415.75 946.5,424.25 955,424.25 955,435 944.25,435 944.25,426.5 935.75,426.5 935.75,435 925,435 925,424.25 933.5,424.25 933.5,415.75 925,415.75 925,405"/>
<polygon id="0x1069330" class="l71d20" points="935.75,445 935.75,453.5 944.25,453.5 944.25,445 955,445 955,455.75 946.5,455.75 946.5,464.25 955,464.25 955,475 944.25,475 944.25,466.5 935.75,466.5 935.75,475 925,475 925,464.25 933.5,464.25 933.5,455.75 925,455.75 925,445"/>
<polygon id="0x111cc00" class="l71d20" points="935.75,565 935.75,573.5 944.25,573.5 944.25,565 955,565 955,575.75 946.5,575.75 946.5,584.25 955,584.25 955,595 944.25,595 944.25,586.5 935.75,586.5 935.75,595 925,595 925,584.25 933.5,584.25 933.5,575.75 925,575.75 925,565"/>
<polygon id="0x111cc70" class="l71d20" points="935.75,605 935.75,613.5 944.25,613.5 944.25,605 955,605 955,615.75 946.5,615.75 946.5,624.25 955,624.25 955,635 944.25,635 944.25,626.5 935.75,626.5 935.75,635 925,635 925,624.25 933.5,624.25 933.5,615.75 925,615.75 925,605"/>
<polygon id="0x118b170" class="l71d20" points="935.75,645 935.75,653.5 944.25,653.5 944.25,645 955,645 955,655.75 946.5,655.75 946.5,664.25 955,664.25 955,675 944.25,675 944.25,666.5 935.75,666.5 935.75,675 925,675 925,664.25 933.5,664.25 933.5,655.75 925,655.75 925,645"/>
<polygon id="0x118b1e0" class="l71d20" points="975.75,365 975.75,373.5 984.25,373.5 984.25,365 995,365 995,375.75 986.5,375.75 986.5,384.25 995,384.25 995,395 984.25,395 984.25,386.5 975.75,386.5 975.75,395 965,395 965,384.25 973.5,384.25 973.5,375.75 965,375.75 965,365"/>
<polygon id="0x1203680" class="l71d20" points="975.75,405 975.75,413.5 984.25,413.5 984.25,405 995,405 995,415.75 986.5,415.75 986.5,424.25 995,424.25 995,435 984.25,435 984.25,426.5 975.75,426.5 975.75,435 965,435 965,424.25 973.5,424.25 973.5,415.75 965,415.75 965,405"/>
<polygon id="0x1203840" class="l71d20" points="975.75,485 975.75,493.5 984.25,493.5 984.25,485 995,485 995,495.75 986.5,495.75 986.5,504.25 995,504.25 995,515 984.25,515 984.25,506.5 975.75,506.5 975.75,515 965,515 965,504.25 973.5,504.25 973.5,495.75 965,495.75 965,485"/>
<polygon id="0x1203a00" class="l71d20" points="975.75,525 975.75,533.5 984.25,533.5 984.25,525 995,525 995,535.75 986.5,535.75 986.5,544.25 995,544.25 995,555 984.25,555 984.25,546.5 975.75,546.5 975.75,555 965,555 965,544.25 973.5,544.25 973.5,535.75 965,535.75 965,525"/>
<polygon id="0x1203bc0" class="l71d20" points="975.75,605 975.75,613.5 984.25,613.5 984.25,605 995,605 995,615.75 986.5,615.75 986.5,624.25 995,624.25 995,635 984.25,635 984.25,626.5 975.75,626.5 975.75,635 965,635 965,624.25 973.5,624.25 973.5,615.75 965,615.75 965,605"/>
<polygon id="0x1203d80" class="l71d20" points="975.75,645 975.75,653.5 984.25,653.5 984.25,645 995,645 995,655.75 986.5,655.75 986.5,664.25 995,664.25 995,675 984.25,675 984.25,666.5 975.75,666.5 975.75,675 965,675 965,664.25 973.5,664.25 973.5,655.75 965,655.75 965,645"/>
<polygon id="0x1203f40" class="l71d20" points="1015.75,365 1015.75,373.5 1024.25,373.5 1024.25,365 1035,365 1035,375.75 1026.5,375.75 1026.5,384.25 1035,384.25 1035,395 1024.25,395 1024.25,386.5 1015.75,386.5 1015.75,395 1005,395 1005,384.25 1013.5,384.25 1013.5,375.75 1005,375.75 1005,365"/>
<polygon id="0x1204100" class="l71d20" points="1015.75,485 1015.75,493.5 1024.25,493.5 1024.25,485 1035,485 1035,495.75 1026.5,495.75 1026.5,504.25 1035,504.25 1035,515 1024.25,515 1024.25,506.5 1015.75,506.5 1015.75,515 1005,515 1005,504.25 1013.5,504.25 1013.5,495.75 1005,495.75 1005,485"/>
<polygon id="0x12042c0" class="l71d20" points="1015.75,525 1015.75,533.5 1024.25,533.5 1024.25,525 1035,525 1035,535.75 1026.5,535.75 1026.5,544.25 1035,544.25 1035,555 1024.25,555 1024.25,546.5 1015.75,546.5 1015.75,555 1005,555 1005,544.25 1013.5,544.25 1013.5,535.75 1005,535.75 1005,525"/>
<polygon id="0x1204480" class="l71d20" points="1015.75,645 1015.75,653.5 1024.25,653.5 1024.25,645 1035,645 1035,655.75 1026.5,655.75 1026.5,664.25 1035,664.25 1035,675 1024.25,675 1024.25,666.5 1015.75,666.5 1015.75,675 1005,675 1005,664.25 1013.5,664.25 1013.5,655.75 1005,655.75 1005,645"/>
<polygon id="0x11f2940" class="l235d4" points="0,0 40,0 40,40 0,40"/>
</g>
</svg>